<?xml version="1.0" encoding="UTF-8"?>
<!DOCTYPE svg PUBLIC "-//W3C//DTD SVG 1.1//EN" "http://www.w3.org/Graphics/SVG/1.1/DTD/svg11.dtd">
<svg xmlns="http://www.w3.org/2000/svg" version="1.1" width="1169px" height="459px" style="shape-rendering:geometricPrecision; text-rendering:geometricPrecision; image-rendering:optimizeQuality; fill-rule:evenodd; clip-rule:evenodd" xmlns:xlink="http://www.w3.org/1999/xlink">
<g><path style="opacity:1" fill="#fefefe" d="M -0.5,-0.5 C 389.167,-0.5 778.833,-0.5 1168.5,-0.5C 1168.5,152.5 1168.5,305.5 1168.5,458.5C 778.833,458.5 389.167,458.5 -0.5,458.5C -0.5,305.5 -0.5,152.5 -0.5,-0.5 Z"/></g>
<g><path style="opacity:1" fill="#201e8a" d="M 718.5,118.5 C 722.167,118.5 725.833,118.5 729.5,118.5C 729.5,139.167 729.5,159.833 729.5,180.5C 717.167,180.5 704.833,180.5 692.5,180.5C 691.209,180.737 690.209,180.404 689.5,179.5C 702.5,179.5 715.5,179.5 728.5,179.5C 728.5,159.5 728.5,139.5 728.5,119.5C 725.5,119.5 722.5,119.5 719.5,119.5C 720.103,124.619 719.436,129.285 717.5,133.5C 717.179,128.305 717.513,123.305 718.5,118.5 Z"/></g>
<g><path style="opacity:1" fill="#555cab" d="M 718.5,118.5 C 722.298,117.517 726.298,117.183 730.5,117.5C 730.5,138.833 730.5,160.167 730.5,181.5C 717.656,181.829 704.989,181.495 692.5,180.5C 704.833,180.5 717.167,180.5 729.5,180.5C 729.5,159.833 729.5,139.167 729.5,118.5C 725.833,118.5 722.167,118.5 718.5,118.5 Z"/></g>
<g><path style="opacity:1" fill="#969fd0" d="M 805.5,133.5 C 805.167,133.5 804.833,133.5 804.5,133.5C 804.5,128.833 804.5,124.167 804.5,119.5C 800.702,118.517 796.702,118.183 792.5,118.5C 792.5,139.5 792.5,160.5 792.5,181.5C 791.503,160.34 791.169,139.007 791.5,117.5C 796.167,117.5 800.833,117.5 805.5,117.5C 805.5,122.833 805.5,128.167 805.5,133.5 Z"/></g>
<g><path style="opacity:1" fill="#30398e" d="M 804.5,119.5 C 800.833,119.5 797.167,119.5 793.5,119.5C 793.5,138.167 793.5,156.833 793.5,175.5C 793.5,176.833 793.5,178.167 793.5,179.5C 805.989,180.495 818.656,180.829 831.5,180.5C 818.677,181.495 805.677,181.829 792.5,181.5C 792.5,160.5 792.5,139.5 792.5,118.5C 796.702,118.183 800.702,118.517 804.5,119.5 Z"/></g>
<g><path style="opacity:1" fill="#05128b" d="M 804.5,119.5 C 804.5,124.167 804.5,128.833 804.5,133.5C 803.515,129.366 803.182,125.032 803.5,120.5C 800.552,120.223 797.719,120.556 795,121.5C 794.832,139.671 794.332,157.671 793.5,175.5C 793.5,156.833 793.5,138.167 793.5,119.5C 797.167,119.5 800.833,119.5 804.5,119.5 Z"/></g>
<g><path style="opacity:1" fill="#5a629c" d="M 439.5,138.5 C 438.833,138.167 438.167,137.833 437.5,137.5C 437.586,136.504 437.252,135.671 436.5,135C 431.871,133.978 427.538,134.478 423.5,136.5C 423.414,135.504 423.748,134.671 424.5,134C 429.155,133.501 433.821,133.334 438.5,133.5C 438.629,135.216 438.962,136.883 439.5,138.5 Z"/></g>
<g><path style="opacity:1" fill="#565c97" d="M 469.5,139.5 C 469.5,137.833 469.5,136.167 469.5,134.5C 465.4,134.237 461.4,134.57 457.5,135.5C 461.715,133.564 466.381,132.897 471.5,133.5C 471.405,135.786 470.738,137.786 469.5,139.5 Z"/></g>
<g><path style="opacity:1" fill="#51509e" d="M 495.5,134.5 C 505.992,133.341 516.659,133.175 527.5,134C 528.416,134.278 529.082,134.778 529.5,135.5C 518.205,134.566 506.871,134.232 495.5,134.5 Z"/></g>
<g><path style="opacity:1" fill="#6467b5" d="M 494.5,134.5 C 491.726,137.26 489.392,140.26 487.5,143.5C 487.933,139.062 490.267,136.062 494.5,134.5 Z"/></g>
<g><path style="opacity:1" fill="#1c1d9b" d="M 717.5,133.5 C 717.082,134.222 716.416,134.722 715.5,135C 707.841,135.5 700.174,135.666 692.5,135.5C 692.5,136.5 692.5,137.5 692.5,138.5C 701.408,138.463 710.408,138.463 719.5,138.5C 719.5,140.167 719.5,141.833 719.5,143.5C 717.821,143.285 716.821,143.952 716.5,145.5C 709.5,145.5 702.5,145.5 695.5,145.5C 695.962,144.12 696.962,143.453 698.5,143.5C 704.172,144.777 709.839,144.777 715.5,143.5C 715.5,142.5 715.5,141.5 715.5,140.5C 706.087,141.487 696.587,141.154 687,139.5C 686.26,141.319 685.093,142.652 683.5,143.5C 683.343,142.127 683.51,140.793 684,139.5C 685.627,138.468 686.793,137.134 687.5,135.5C 687.918,134.778 688.584,134.278 689.5,134C 698.827,133.5 708.161,133.334 717.5,133.5 Z"/></g>
<g><path style="opacity:1" fill="#acaae3" d="M 391.5,133.5 C 392.167,135.833 392.833,138.167 393.5,140.5C 390.782,138.618 390.115,136.285 391.5,133.5 Z"/></g>
<g><path style="opacity:1" fill="#282985" d="M 391.5,133.5 C 395.514,133.334 399.514,133.501 403.5,134C 404.823,134.816 405.489,135.983 405.5,137.5C 402.482,135.537 399.149,135.037 395.5,136C 394.864,138.394 394.864,140.894 395.5,143.5C 395.167,143.5 394.833,143.5 394.5,143.5C 393.596,142.791 393.263,141.791 393.5,140.5C 392.833,138.167 392.167,135.833 391.5,133.5 Z"/></g>
<g><path style="opacity:1" fill="#161989" d="M 437.5,137.5 C 432.855,135.661 428.688,136.328 425,139.5C 424.51,140.793 424.343,142.127 424.5,143.5C 423.5,143.5 422.5,143.5 421.5,143.5C 421.878,141.079 422.545,138.746 423.5,136.5C 427.538,134.478 431.871,133.978 436.5,135C 437.252,135.671 437.586,136.504 437.5,137.5 Z"/></g>
<g><path style="opacity:1" fill="#6367b4" d="M 617.5,137.5 C 616.492,139.544 615.492,141.544 614.5,143.5C 614.025,140.687 615.025,138.687 617.5,137.5 Z"/></g>
<g><path style="opacity:1" fill="#040fb2" d="M 463.5,135.5 C 467.071,135.408 468.238,137.074 467,140.5C 465.053,141.11 463.219,141.943 461.5,143C 462.793,143.49 464.127,143.657 465.5,143.5C 465.5,144.5 465.5,145.5 465.5,146.5C 463.144,145.673 460.477,145.673 457.5,146.5C 457.167,146 456.833,145.5 456.5,145C 457.852,143.036 458.686,140.869 459,138.5C 460.409,137.219 461.909,136.219 463.5,135.5 Z"/></g>
<g><path style="opacity:1" fill="#0212a8" d="M 531.5,139.5 C 532.79,140.058 533.623,141.058 534,142.5C 534.5,148.825 534.666,155.158 534.5,161.5C 524.828,161.666 515.161,161.5 505.5,161C 504.45,159.236 503.45,157.069 502.5,154.5C 505.694,154.27 508.694,154.936 511.5,156.5C 515.724,153.803 520.391,152.803 525.5,153.5C 525.658,150.455 524.991,147.621 523.5,145C 519.311,144.664 515.144,144.164 511,143.5C 506.874,144.329 502.707,144.663 498.5,144.5C 498.189,147.916 497.189,151.083 495.5,154C 496.167,155.333 496.833,156.667 497.5,158C 497.095,158.945 496.428,159.612 495.5,160C 499.011,161.264 499.178,163.097 496,165.5C 495.51,166.793 495.343,168.127 495.5,169.5C 496.833,169.5 498.167,169.5 499.5,169.5C 509.842,169.88 520.175,170.88 530.5,172.5C 531.478,172.023 532.311,171.357 533,170.5C 533.498,173.482 533.665,176.482 533.5,179.5C 520.45,179.814 507.45,179.481 494.5,178.5C 491.956,175.919 492.79,174.919 497,175.5C 507.151,176.551 517.318,176.717 527.5,176C 521.47,175.748 515.47,175.248 509.5,174.5C 508.167,174.833 506.833,175.167 505.5,175.5C 502.331,174.041 498.998,173.208 495.5,173C 494.167,163 494.167,153 495.5,143C 493.893,143.019 492.226,143.185 490.5,143.5C 490.666,152.173 490.5,160.84 490,169.5C 489.333,160.167 489.333,150.833 490,141.5C 491.5,140 493,138.5 494.5,137C 505.5,136.333 516.5,136.333 527.5,137C 529.133,137.48 530.466,138.313 531.5,139.5 Z"/></g>
<g><path style="opacity:1" fill="#2f2c92" d="M 469.5,139.5 C 468.542,144.367 466.542,148.7 463.5,152.5C 463.614,150.282 464.28,148.282 465.5,146.5C 465.5,145.5 465.5,144.5 465.5,143.5C 464.127,143.657 462.793,143.49 461.5,143C 463.219,141.943 465.053,141.11 467,140.5C 468.238,137.074 467.071,135.408 463.5,135.5C 462.127,135.343 460.793,135.51 459.5,136C 457.686,138.479 456.019,140.979 454.5,143.5C 454.733,140.458 455.733,137.792 457.5,135.5C 461.4,134.57 465.4,134.237 469.5,134.5C 469.5,136.167 469.5,137.833 469.5,139.5 Z"/></g>
<g><path style="opacity:1" fill="#0d147d" d="M 299.5,134.5 C 302.407,135.073 304.407,136.739 305.5,139.5C 302.889,139.354 300.889,138.188 299.5,136C 290.173,135.5 280.839,135.334 271.5,135.5C 268.5,135.5 265.5,135.5 262.5,135.5C 261.432,156.153 261.266,176.82 262,197.5C 262.995,198.066 263.828,198.733 264.5,199.5C 263.167,199.5 261.833,199.5 260.5,199.5C 260.5,177.833 260.5,156.167 260.5,134.5C 273.5,134.5 286.5,134.5 299.5,134.5 Z"/></g>
<g><path style="opacity:1" fill="#8081c7" d="M 837.5,137.5 C 839.975,138.687 840.975,140.687 840.5,143.5C 840.167,143.5 839.833,143.5 839.5,143.5C 839.296,141.315 838.63,139.315 837.5,137.5 Z"/></g>
<g><path style="opacity:1" fill="#6d73ad" d="M 299.5,134.5 C 286.5,134.5 273.5,134.5 260.5,134.5C 260.5,156.167 260.5,177.833 260.5,199.5C 261.833,199.5 263.167,199.5 264.5,199.5C 266.833,199.5 269.167,199.5 271.5,199.5C 268.038,200.482 264.371,200.815 260.5,200.5C 259.503,178.34 259.169,156.006 259.5,133.5C 273.01,133.171 286.344,133.504 299.5,134.5 Z"/></g>
<g><path style="opacity:1" fill="#0311a8" d="M 271.5,135.5 C 279.676,136.167 288.01,136.833 296.5,137.5C 287.316,137.909 277.983,138.575 268.5,139.5C 269.72,148.736 270.387,158.069 270.5,167.5C 270.484,175.9 269.817,184.066 268.5,192C 270.953,193.848 271.953,196.348 271.5,199.5C 269.167,199.5 266.833,199.5 264.5,199.5C 263.828,198.733 262.995,198.066 262,197.5C 261.266,176.82 261.432,156.153 262.5,135.5C 265.5,135.5 268.5,135.5 271.5,135.5 Z"/></g>
<g><path style="opacity:1" fill="#00159b" d="M 264.5,143.5 C 265.5,143.5 266.5,143.5 267.5,143.5C 267.5,159.5 267.5,175.5 267.5,191.5C 266.5,191.5 265.5,191.5 264.5,191.5C 264.5,175.5 264.5,159.5 264.5,143.5 Z"/></g>
<g><path style="opacity:1" fill="#1f1f9e" d="M 271.5,135.5 C 280.839,135.334 290.173,135.5 299.5,136C 300.889,138.188 302.889,139.354 305.5,139.5C 305.833,139.5 306.167,139.5 306.5,139.5C 307.458,151.116 307.791,162.783 307.5,174.5C 307.5,175.167 307.167,175.5 306.5,175.5C 306.667,164.828 306.5,154.161 306,143.5C 305.581,142.328 304.915,141.328 304,140.5C 298.665,142.047 293.332,143.047 288,143.5C 282.803,141.58 277.303,140.913 271.5,141.5C 271.5,142.833 271.5,144.167 271.5,145.5C 280.173,145.334 288.84,145.5 297.5,146C 298,146.5 298.5,147 299,147.5C 299.389,154.175 299.222,160.841 298.5,167.5C 300.167,167.5 301.833,167.5 303.5,167.5C 303.334,159.493 303.5,151.493 304,143.5C 304.17,154.341 304.67,165.008 305.5,175.5C 305.489,177.017 304.823,178.184 303.5,179C 301.685,179.757 300.019,180.59 298.5,181.5C 289.833,181.5 281.167,181.5 272.5,181.5C 272.823,187.69 272.49,193.69 271.5,199.5C 271.953,196.348 270.953,193.848 268.5,192C 269.817,184.066 270.484,175.9 270.5,167.5C 270.387,158.069 269.72,148.736 268.5,139.5C 277.983,138.575 287.316,137.909 296.5,137.5C 288.01,136.833 279.676,136.167 271.5,135.5 Z"/></g>
<g><path style="opacity:1" fill="#0310a8" d="M 306.5,175.5 C 306.167,175.5 305.833,175.5 305.5,175.5C 304.67,165.008 304.17,154.341 304,143.5C 303.5,151.493 303.334,159.493 303.5,167.5C 301.833,167.5 300.167,167.5 298.5,167.5C 299.222,160.841 299.389,154.175 299,147.5C 298.5,147 298,146.5 297.5,146C 288.84,145.5 280.173,145.334 271.5,145.5C 271.5,144.167 271.5,142.833 271.5,141.5C 277.303,140.913 282.803,141.58 288,143.5C 293.332,143.047 298.665,142.047 304,140.5C 304.915,141.328 305.581,142.328 306,143.5C 306.5,154.161 306.667,164.828 306.5,175.5 Z"/></g>
<g><path style="opacity:1" fill="#8285b9" d="M 306.5,139.5 C 307.117,139.611 307.617,139.944 308,140.5C 308.826,152.008 308.659,163.341 307.5,174.5C 307.791,162.783 307.458,151.116 306.5,139.5 Z"/></g>
<g><path style="opacity:1" fill="#222094" d="M 374.5,173.5 C 374.821,162.252 374.487,151.085 373.5,140C 372.026,138.684 370.359,137.684 368.5,137C 356.819,136.167 345.152,136.334 333.5,137.5C 333.023,138.931 332.357,140.264 331.5,141.5C 329.702,154.232 330.368,166.732 333.5,179C 344.848,179.832 356.181,179.666 367.5,178.5C 368.646,177.281 369.646,175.948 370.5,174.5C 371.417,175.127 372.417,175.461 373.5,175.5C 372.185,178.006 370.185,179.839 367.5,181C 356.833,181.667 346.167,181.667 335.5,181C 332.375,180.375 330.375,178.541 329.5,175.5C 328.377,164.213 328.21,152.879 329,141.5C 330.481,140.529 331.315,139.196 331.5,137.5C 332.343,135.827 333.676,134.66 335.5,134C 346.167,133.333 356.833,133.333 367.5,134C 370.539,135.031 373.039,136.865 375,139.5C 375.826,151.008 375.659,162.341 374.5,173.5 Z"/></g>
<g><path style="opacity:1" fill="#0e1692" d="M 564.5,134.5 C 574.5,134.5 584.5,134.5 594.5,134.5C 594.5,138.167 594.5,141.833 594.5,145.5C 585.983,145.174 577.65,145.507 569.5,146.5C 569.167,146.5 568.833,146.5 568.5,146.5C 568.5,145.5 568.5,144.5 568.5,143.5C 567.167,143.5 565.833,143.5 564.5,143.5C 564.5,144.833 564.5,146.167 564.5,147.5C 563.5,147.5 562.5,147.5 561.5,147.5C 561.67,146.178 561.337,145.011 560.5,144C 565.23,141.433 570.23,140.933 575.5,142.5C 574.975,143.192 574.308,143.692 573.5,144C 579.5,144.667 585.5,144.667 591.5,144C 593.321,141.544 593.988,138.711 593.5,135.5C 581.971,135.101 570.638,136.101 559.5,138.5C 560.539,136.469 562.205,135.136 564.5,134.5 Z"/></g>
<g><path style="opacity:1" fill="#201f8e" d="M 655.5,135.5 C 643.586,135.179 631.753,135.512 620,136.5C 619,138.833 618,141.167 617,143.5C 616.168,154.182 616.334,164.849 617.5,175.5C 619.22,177.131 621.22,178.297 623.5,179C 635.615,179.992 647.615,179.492 659.5,177.5C 659.917,174.921 659.25,172.754 657.5,171C 646.992,170.83 636.659,170.33 626.5,169.5C 638.167,169.5 649.833,169.5 661.5,169.5C 661.5,173.5 661.5,177.5 661.5,181.5C 647.797,181.78 634.13,181.446 620.5,180.5C 618.527,179.194 616.861,177.527 615.5,175.5C 614.57,164.872 614.237,154.205 614.5,143.5C 615.492,141.544 616.492,139.544 617.5,137.5C 618.736,135.172 620.736,134.006 623.5,134C 633.5,133.333 643.5,133.333 653.5,134C 654.416,134.278 655.082,134.778 655.5,135.5 Z"/></g>
<g><path style="opacity:1" fill="#0311a7" d="M 655.5,135.5 C 657.087,137.97 658.587,140.636 660,143.5C 660.819,149.681 660.653,155.681 659.5,161.5C 658.022,161.762 656.689,161.429 655.5,160.5C 656.732,157.7 657.399,154.7 657.5,151.5C 657.167,148.833 656.833,146.167 656.5,143.5C 655.673,147.459 655.173,151.459 655,155.5C 655.15,151.044 653.65,147.377 650.5,144.5C 649.228,143.954 647.894,143.621 646.5,143.5C 640.168,144.464 633.835,144.631 627.5,144C 622.917,146.671 622.583,149.505 626.5,152.5C 626.5,153.5 626.5,154.5 626.5,155.5C 635.167,155.5 643.833,155.5 652.5,155.5C 652.5,156.833 652.5,158.167 652.5,159.5C 647.63,159.968 642.964,159.302 638.5,157.5C 637.396,158.631 637.729,159.465 639.5,160C 635.72,160.918 632.054,161.751 628.5,162.5C 628.5,162.833 628.5,163.167 628.5,163.5C 626.744,164.552 626.077,166.219 626.5,168.5C 626.5,168.833 626.5,169.167 626.5,169.5C 636.659,170.33 646.992,170.83 657.5,171C 659.25,172.754 659.917,174.921 659.5,177.5C 647.615,179.492 635.615,179.992 623.5,179C 621.22,178.297 619.22,177.131 617.5,175.5C 616.334,164.849 616.168,154.182 617,143.5C 618,141.167 619,138.833 620,136.5C 631.753,135.512 643.586,135.179 655.5,135.5 Z"/></g>
<g><path style="opacity:1" fill="#1a1ca0" d="M 805.5,133.5 C 814.173,133.334 822.84,133.5 831.5,134C 833.879,134.716 835.879,135.883 837.5,137.5C 838.63,139.315 839.296,141.315 839.5,143.5C 839.787,154.218 839.454,164.885 838.5,175.5C 837.033,178.29 834.7,179.956 831.5,180.5C 818.656,180.829 805.989,180.495 793.5,179.5C 806.184,179.832 818.851,179.499 831.5,178.5C 832.5,177.833 833.5,177.167 834.5,176.5C 832.557,165.603 832.224,154.603 833.5,143.5C 832.5,143.5 831.5,143.5 830.5,143.5C 831.098,152.355 831.098,161.021 830.5,169.5C 823.558,170.464 816.558,170.797 809.5,170.5C 809.286,172.144 809.62,173.644 810.5,175C 808.866,175.494 807.199,175.66 805.5,175.5C 806.5,170.5 804.5,168.5 799.5,169.5C 799.5,168.5 799.5,167.5 799.5,166.5C 800.822,166.67 801.989,166.337 803,165.5C 803.202,158.45 803.702,151.45 804.5,144.5C 807.135,143.728 809.801,143.562 812.5,144C 810.3,141.954 807.633,140.954 804.5,141C 806.5,140.667 808.5,140.333 810.5,140C 809.167,138.667 809.167,137.333 810.5,136C 808.347,135.901 806.681,135.067 805.5,133.5 Z"/></g>
<g><path style="opacity:1" fill="#383d97" d="M 860.5,135.5 C 860.333,147.171 860.5,158.838 861,170.5C 862.136,172.743 862.97,175.076 863.5,177.5C 861.204,176.267 859.87,174.267 859.5,171.5C 859.172,159.322 859.505,147.322 860.5,135.5 Z"/></g>
<g><path style="opacity:1" fill="#858ac3" d="M 872.5,168.5 C 871.505,157.346 871.172,146.012 871.5,134.5C 867.629,134.185 863.962,134.518 860.5,135.5C 859.505,147.322 859.172,159.322 859.5,171.5C 858.505,159.011 858.171,146.344 858.5,133.5C 863.167,133.5 867.833,133.5 872.5,133.5C 872.5,145.167 872.5,156.833 872.5,168.5 Z"/></g>
<g><path style="opacity:1" fill="#020fb0" d="M 906.5,143.5 C 906.5,159.5 906.5,175.5 906.5,191.5C 906.167,191.5 905.833,191.5 905.5,191.5C 904.504,175.675 904.17,159.675 904.5,143.5C 903.5,143.5 902.5,143.5 901.5,143.5C 900.868,160.005 901.535,176.338 903.5,192.5C 900.818,193.182 899.152,194.848 898.5,197.5C 897.5,197.5 896.5,197.5 895.5,197.5C 890.015,196.673 884.348,196.173 878.5,196C 877.216,194.703 877.383,193.536 879,192.5C 885.136,193.817 891.303,193.817 897.5,192.5C 898.978,176.205 899.811,159.871 900,143.5C 902.243,140.886 904.41,140.886 906.5,143.5 Z"/></g>
<g><path style="opacity:1" fill="#03159c" d="M 905.5,191.5 C 904.388,194.946 902.055,196.946 898.5,197.5C 899.152,194.848 900.818,193.182 903.5,192.5C 901.535,176.338 900.868,160.005 901.5,143.5C 902.5,143.5 903.5,143.5 904.5,143.5C 904.17,159.675 904.504,175.675 905.5,191.5 Z"/></g>
<g><path style="opacity:1" fill="#141a80" d="M 895.5,135.5 C 899.298,134.517 903.298,134.183 907.5,134.5C 907.5,152.833 907.5,171.167 907.5,189.5C 907.5,190.167 907.5,190.833 907.5,191.5C 907.167,191.5 906.833,191.5 906.5,191.5C 906.5,175.5 906.5,159.5 906.5,143.5C 906.768,140.881 906.435,138.381 905.5,136C 902.183,135.502 898.85,135.335 895.5,135.5 Z"/></g>
<g><path style="opacity:1" fill="#8085b1" d="M 907.5,189.5 C 907.5,171.167 907.5,152.833 907.5,134.5C 903.298,134.183 899.298,134.517 895.5,135.5C 895.5,146.833 895.5,158.167 895.5,169.5C 887.648,169.825 879.982,169.492 872.5,168.5C 879.833,168.5 887.167,168.5 894.5,168.5C 894.5,156.833 894.5,145.167 894.5,133.5C 899.167,133.5 903.833,133.5 908.5,133.5C 908.83,152.341 908.497,171.007 907.5,189.5 Z"/></g>
<g><path style="opacity:1" fill="#5b61b1" d="M 564.5,134.5 C 574.653,133.506 584.986,133.172 595.5,133.5C 595.818,138.032 595.485,142.366 594.5,146.5C 586.167,146.5 577.833,146.5 569.5,146.5C 577.65,145.507 585.983,145.174 594.5,145.5C 594.5,141.833 594.5,138.167 594.5,134.5C 584.5,134.5 574.5,134.5 564.5,134.5 Z"/></g>
<g><path style="opacity:1" fill="#7f89b8" d="M 687.5,135.5 C 686.793,137.134 685.627,138.468 684,139.5C 683.51,140.793 683.343,142.127 683.5,143.5C 682.506,152.986 682.173,162.652 682.5,172.5C 681.341,162.342 681.175,152.008 682,141.5C 682.625,138.375 684.459,136.375 687.5,135.5 Z"/></g>
<g><path style="opacity:1" fill="#403e9f" d="M 439.5,138.5 C 442.311,144.392 445.311,150.392 448.5,156.5C 449.183,156.137 449.85,155.804 450.5,155.5C 449.987,157.854 448.821,159.854 447,161.5C 445.764,155.035 443.431,149.035 440,143.5C 439.506,141.866 439.34,140.199 439.5,138.5 Z"/></g>
<g><path style="opacity:1" fill="#4146a6" d="M 531.5,137.5 C 533.113,137.944 534.28,138.944 535,140.5C 535.5,148.159 535.666,155.826 535.5,163.5C 532.833,163.5 530.167,163.5 527.5,163.5C 529.833,162.833 532.167,162.167 534.5,161.5C 534.666,155.158 534.5,148.825 534,142.5C 533.623,141.058 532.79,140.058 531.5,139.5C 531.5,138.833 531.5,138.167 531.5,137.5 Z"/></g>
<g><path style="opacity:1" fill="#fafbfa" d="M 273.5,146.5 C 280.833,146.5 288.167,146.5 295.5,146.5C 295.5,153.833 295.5,161.167 295.5,168.5C 295.5,161.167 295.5,153.833 295.5,146.5C 288.167,146.5 280.833,146.5 273.5,146.5 Z"/></g>
<g><path style="opacity:1" fill="#151a9d" d="M 463.5,135.5 C 461.909,136.219 460.409,137.219 459,138.5C 458.686,140.869 457.852,143.036 456.5,145C 456.833,145.5 457.167,146 457.5,146.5C 460.477,145.673 463.144,145.673 465.5,146.5C 464.28,148.282 463.614,150.282 463.5,152.5C 463.66,154.199 463.494,155.866 463,157.5C 459.883,163.374 457.383,169.374 455.5,175.5C 454.833,176.5 454.167,177.5 453.5,178.5C 453.5,177.5 453.5,176.5 453.5,175.5C 450.002,175.435 449.502,174.101 452,171.5C 452.853,173.125 453.853,173.458 455,172.5C 455.8,168.764 455.3,165.264 453.5,162C 453.673,159.979 454.34,158.146 455.5,156.5C 456.314,158.766 456.814,161.1 457,163.5C 460.365,160.48 461.198,156.814 459.5,152.5C 458.914,152.709 458.414,153.043 458,153.5C 455.539,149.275 453.873,149.608 453,154.5C 452.329,155.252 451.496,155.586 450.5,155.5C 451.715,151.368 453.049,147.368 454.5,143.5C 456.019,140.979 457.686,138.479 459.5,136C 460.793,135.51 462.127,135.343 463.5,135.5 Z"/></g>
<g><path style="opacity:1" fill="#9ca3df" d="M 394.5,143.5 C 394.833,143.5 395.167,143.5 395.5,143.5C 396.371,146.112 397.037,148.779 397.5,151.5C 395.415,149.316 394.415,146.649 394.5,143.5 Z"/></g>
<g><path style="opacity:1" fill="#09129b" d="M 494.5,134.5 C 494.833,134.5 495.167,134.5 495.5,134.5C 506.871,134.232 518.205,134.566 529.5,135.5C 530.5,135.833 531.167,136.5 531.5,137.5C 531.5,138.167 531.5,138.833 531.5,139.5C 530.466,138.313 529.133,137.48 527.5,137C 516.5,136.333 505.5,136.333 494.5,137C 493,138.5 491.5,140 490,141.5C 489.333,150.833 489.333,160.167 490,169.5C 490.5,160.84 490.666,152.173 490.5,143.5C 492.226,143.185 493.893,143.019 495.5,143C 494.167,153 494.167,163 495.5,173C 498.998,173.208 502.331,174.041 505.5,175.5C 506.833,175.167 508.167,174.833 509.5,174.5C 515.47,175.248 521.47,175.748 527.5,176C 517.318,176.717 507.151,176.551 497,175.5C 492.79,174.919 491.956,175.919 494.5,178.5C 507.45,179.481 520.45,179.814 533.5,179.5C 533.665,176.482 533.498,173.482 533,170.5C 532.311,171.357 531.478,172.023 530.5,172.5C 520.175,170.88 509.842,169.88 499.5,169.5C 511.167,169.5 522.833,169.5 534.5,169.5C 534.5,173.167 534.5,176.833 534.5,180.5C 521.5,180.5 508.5,180.5 495.5,180.5C 492.573,179.243 490.239,177.243 488.5,174.5C 487.573,164.206 487.24,153.872 487.5,143.5C 489.392,140.26 491.726,137.26 494.5,134.5 Z"/></g>
<g><path style="opacity:1" fill="#cdd4fc" d="M 569.5,146.5 C 577.833,146.5 586.167,146.5 594.5,146.5C 586.684,147.492 578.684,147.826 570.5,147.5C 570.828,159.012 570.495,170.346 569.5,181.5C 569.5,169.833 569.5,158.167 569.5,146.5 Z"/></g>
<g><path style="opacity:1" fill="#8587c3" d="M 614.5,143.5 C 614.237,154.205 614.57,164.872 615.5,175.5C 614.778,175.082 614.278,174.416 614,173.5C 613.175,163.325 613.342,153.325 614.5,143.5 Z"/></g>
<g><path style="opacity:1" fill="#3a3ea8" d="M 839.5,143.5 C 839.833,143.5 840.167,143.5 840.5,143.5C 840.809,154.248 840.476,164.915 839.5,175.5C 839.167,175.5 838.833,175.5 838.5,175.5C 839.454,164.885 839.787,154.218 839.5,143.5 Z"/></g>
<g><path style="opacity:1" fill="#1e1fa0" d="M 659.5,161.5 C 649.347,162.494 639.014,162.828 628.5,162.5C 632.054,161.751 635.72,160.918 639.5,160C 637.729,159.465 637.396,158.631 638.5,157.5C 642.964,159.302 647.63,159.968 652.5,159.5C 652.5,158.167 652.5,156.833 652.5,155.5C 643.833,155.5 635.167,155.5 626.5,155.5C 626.5,154.5 626.5,153.5 626.5,152.5C 622.583,149.505 622.917,146.671 627.5,144C 633.835,144.631 640.168,144.464 646.5,143.5C 647.894,143.621 649.228,143.954 650.5,144.5C 653.65,147.377 655.15,151.044 655,155.5C 655.173,151.459 655.673,147.459 656.5,143.5C 656.833,146.167 657.167,148.833 657.5,151.5C 657.399,154.7 656.732,157.7 655.5,160.5C 656.689,161.429 658.022,161.762 659.5,161.5 Z"/></g>
<g><path style="opacity:1" fill="#bec1f3" d="M 649.5,152.5 C 649.5,150.833 649.5,149.167 649.5,147.5C 642.167,147.5 634.833,147.5 627.5,147.5C 627.5,149.167 627.5,150.833 627.5,152.5C 627.167,152.5 626.833,152.5 626.5,152.5C 626.5,150.5 626.5,148.5 626.5,146.5C 634.5,146.5 642.5,146.5 650.5,146.5C 650.795,148.735 650.461,150.735 649.5,152.5 Z"/></g>
<g><path style="opacity:1" fill="#f8fafd" d="M 649.5,152.5 C 642.167,152.5 634.833,152.5 627.5,152.5C 627.5,150.833 627.5,149.167 627.5,147.5C 634.833,147.5 642.167,147.5 649.5,147.5C 649.5,149.167 649.5,150.833 649.5,152.5 Z"/></g>
<g><path style="opacity:1" fill="#686cbd" d="M 331.5,137.5 C 331.315,139.196 330.481,140.529 329,141.5C 328.21,152.879 328.377,164.213 329.5,175.5C 328.883,175.389 328.383,175.056 328,174.5C 327.333,163.167 327.333,151.833 328,140.5C 329.039,139.29 330.206,138.29 331.5,137.5 Z"/></g>
<g><path style="opacity:1" fill="#0712a6" d="M 405.5,137.5 C 405.259,139.898 405.926,141.898 407.5,143.5C 409.183,146.577 410.517,149.91 411.5,153.5C 411.127,157.418 412.794,160.084 416.5,161.5C 417.42,155.203 419.086,149.203 421.5,143.5C 422.5,143.5 423.5,143.5 424.5,143.5C 424.343,142.127 424.51,140.793 425,139.5C 428.688,136.328 432.855,135.661 437.5,137.5C 438.167,137.833 438.833,138.167 439.5,138.5C 439.34,140.199 439.506,141.866 440,143.5C 443.431,149.035 445.764,155.035 447,161.5C 448.821,159.854 449.987,157.854 450.5,155.5C 451.496,155.586 452.329,155.252 453,154.5C 453.873,149.608 455.539,149.275 458,153.5C 458.414,153.043 458.914,152.709 459.5,152.5C 461.198,156.814 460.365,160.48 457,163.5C 456.814,161.1 456.314,158.766 455.5,156.5C 454.34,158.146 453.673,159.979 453.5,162C 455.3,165.264 455.8,168.764 455,172.5C 453.853,173.458 452.853,173.125 452,171.5C 449.502,174.101 450.002,175.435 453.5,175.5C 453.5,176.5 453.5,177.5 453.5,178.5C 450.813,178.664 448.146,178.497 445.5,178C 444.922,176.583 443.922,175.75 442.5,175.5C 441.833,174.833 441.167,174.167 440.5,173.5C 438.69,168.732 436.69,164.065 434.5,159.5C 433.962,157.883 433.629,156.216 433.5,154.5C 431.517,154.157 430.183,154.824 429.5,156.5C 429.715,158.179 429.048,159.179 427.5,159.5C 425.926,159.937 424.759,160.937 424,162.5C 421.636,166.187 419.302,169.854 417,173.5C 416.237,170.937 415.737,170.937 415.5,173.5C 415.919,174.672 416.585,175.672 417.5,176.5C 415.167,177.833 412.833,177.833 410.5,176.5C 412.005,175.158 412.672,173.492 412.5,171.5C 411.07,171.421 409.736,171.754 408.5,172.5C 407.184,169.447 405.517,166.781 403.5,164.5C 402.737,162.632 401.737,160.965 400.5,159.5C 400.097,156.514 399.097,153.848 397.5,151.5C 397.037,148.779 396.371,146.112 395.5,143.5C 394.864,140.894 394.864,138.394 395.5,136C 399.149,135.037 402.482,135.537 405.5,137.5 Z"/></g>
<g><path style="opacity:1" fill="#282899" d="M 421.5,143.5 C 419.086,149.203 417.42,155.203 416.5,161.5C 412.794,160.084 411.127,157.418 411.5,153.5C 412.315,154.429 413.148,155.429 414,156.5C 416.232,151.92 418.732,147.586 421.5,143.5 Z"/></g>
<g><path style="opacity:1" fill="#7880c4" d="M 434.5,159.5 C 433.15,158.517 432.15,157.184 431.5,155.5C 430.817,155.863 430.15,156.196 429.5,156.5C 430.183,154.824 431.517,154.157 433.5,154.5C 433.629,156.216 433.962,157.883 434.5,159.5 Z"/></g>
<g><path style="opacity:1" fill="#5152aa" d="M 405.5,137.5 C 407.074,139.102 407.741,141.102 407.5,143.5C 405.926,141.898 405.259,139.898 405.5,137.5 Z"/></g>
<g><path style="opacity:1" fill="#7e87ca" d="M 559.5,138.5 C 559.5,138.833 559.5,139.167 559.5,139.5C 558.732,140.263 558.232,141.263 558,142.5C 557.5,155.162 557.333,167.829 557.5,180.5C 557.5,180.833 557.5,181.167 557.5,181.5C 556.34,168.34 556.173,155.006 557,141.5C 557.236,139.881 558.069,138.881 559.5,138.5 Z"/></g>
<g><path style="opacity:1" fill="#0311a8" d="M 568.5,146.5 C 568.5,147.167 568.5,147.833 568.5,148.5C 567.506,158.653 567.172,168.986 567.5,179.5C 564.289,179.988 561.456,179.321 559,177.5C 558.246,164.807 558.413,152.141 559.5,139.5C 559.5,139.167 559.5,138.833 559.5,138.5C 570.638,136.101 581.971,135.101 593.5,135.5C 593.988,138.711 593.321,141.544 591.5,144C 585.5,144.667 579.5,144.667 573.5,144C 574.308,143.692 574.975,143.192 575.5,142.5C 570.23,140.933 565.23,141.433 560.5,144C 561.337,145.011 561.67,146.178 561.5,147.5C 562.5,147.5 563.5,147.5 564.5,147.5C 564.5,146.167 564.5,144.833 564.5,143.5C 565.833,143.5 567.167,143.5 568.5,143.5C 568.5,144.5 568.5,145.5 568.5,146.5 Z"/></g>
<g><path style="opacity:1" fill="#0a128a" d="M 559.5,139.5 C 558.413,152.141 558.246,164.807 559,177.5C 561.456,179.321 564.289,179.988 567.5,179.5C 567.172,168.986 567.506,158.653 568.5,148.5C 568.5,159.167 568.5,169.833 568.5,180.5C 564.833,180.5 561.167,180.5 557.5,180.5C 557.333,167.829 557.5,155.162 558,142.5C 558.232,141.263 558.732,140.263 559.5,139.5 Z"/></g>
<g><path style="opacity:1" fill="#5056a7" d="M 568.5,146.5 C 568.833,146.5 569.167,146.5 569.5,146.5C 569.5,158.167 569.5,169.833 569.5,181.5C 565.5,181.5 561.5,181.5 557.5,181.5C 557.5,181.167 557.5,180.833 557.5,180.5C 561.167,180.5 564.833,180.5 568.5,180.5C 568.5,169.833 568.5,159.167 568.5,148.5C 568.5,147.833 568.5,147.167 568.5,146.5 Z"/></g>
<g><path style="opacity:1" fill="#171a98" d="M 534.5,161.5 C 532.167,162.167 529.833,162.833 527.5,163.5C 518.167,163.5 508.833,163.5 499.5,163.5C 499.5,165.167 499.5,166.833 499.5,168.5C 499.5,168.833 499.5,169.167 499.5,169.5C 498.167,169.5 496.833,169.5 495.5,169.5C 495.343,168.127 495.51,166.793 496,165.5C 499.178,163.097 499.011,161.264 495.5,160C 496.428,159.612 497.095,158.945 497.5,158C 496.833,156.667 496.167,155.333 495.5,154C 497.189,151.083 498.189,147.916 498.5,144.5C 502.707,144.663 506.874,144.329 511,143.5C 515.144,144.164 519.311,144.664 523.5,145C 524.991,147.621 525.658,150.455 525.5,153.5C 520.391,152.803 515.724,153.803 511.5,156.5C 508.694,154.936 505.694,154.27 502.5,154.5C 503.45,157.069 504.45,159.236 505.5,161C 515.161,161.5 524.828,161.666 534.5,161.5 Z"/></g>
<g><path style="opacity:1" fill="#f4f6f9" d="M 522.5,146.5 C 523.461,148.265 523.795,150.265 523.5,152.5C 515.833,152.5 508.167,152.5 500.5,152.5C 500.5,150.5 500.5,148.5 500.5,146.5C 507.833,146.5 515.167,146.5 522.5,146.5 Z"/></g>
<g><path style="opacity:1" fill="#5f68bf" d="M 522.5,146.5 C 515.167,146.5 507.833,146.5 500.5,146.5C 500.5,148.5 500.5,150.5 500.5,152.5C 499.532,150.393 499.198,148.059 499.5,145.5C 507.352,145.175 515.018,145.508 522.5,146.5 Z"/></g>
<g><path style="opacity:1" fill="#131883" d="M 655.5,135.5 C 658.115,136.45 660.115,138.117 661.5,140.5C 661.5,148.167 661.5,155.833 661.5,163.5C 650.5,163.5 639.5,163.5 628.5,163.5C 628.5,163.167 628.5,162.833 628.5,162.5C 639.014,162.828 649.347,162.494 659.5,161.5C 660.653,155.681 660.819,149.681 660,143.5C 658.587,140.636 657.087,137.97 655.5,135.5 Z"/></g>
<g><path style="opacity:1" fill="#9fa2e1" d="M 527.5,163.5 C 530.167,163.5 532.833,163.5 535.5,163.5C 524.012,164.495 512.345,164.828 500.5,164.5C 500.5,165.833 500.5,167.167 500.5,168.5C 500.167,168.5 499.833,168.5 499.5,168.5C 499.5,166.833 499.5,165.167 499.5,163.5C 508.833,163.5 518.167,163.5 527.5,163.5 Z"/></g>
<g><path style="opacity:1" fill="#8e92d4" d="M 661.5,140.5 C 662.492,148.316 662.826,156.316 662.5,164.5C 650.833,164.5 639.167,164.5 627.5,164.5C 627.5,165.833 627.5,167.167 627.5,168.5C 627.167,168.5 626.833,168.5 626.5,168.5C 626.077,166.219 626.744,164.552 628.5,163.5C 639.5,163.5 650.5,163.5 661.5,163.5C 661.5,155.833 661.5,148.167 661.5,140.5 Z"/></g>
<g><path style="opacity:1" fill="#b3b6ec" d="M 400.5,159.5 C 401.737,160.965 402.737,162.632 403.5,164.5C 403.5,165.5 403.5,166.5 403.5,167.5C 401.415,165.316 400.415,162.649 400.5,159.5 Z"/></g>
<g><path style="opacity:1" fill="#8387c8" d="M 487.5,143.5 C 487.24,153.872 487.573,164.206 488.5,174.5C 487.778,174.082 487.278,173.416 487,172.5C 486.175,162.658 486.342,152.991 487.5,143.5 Z"/></g>
<g><path style="opacity:1" fill="#6b6fbe" d="M 273.5,146.5 C 273.5,153.833 273.5,161.167 273.5,168.5C 280.833,168.5 288.167,168.5 295.5,168.5C 287.684,169.492 279.684,169.826 271.5,169.5C 271.667,161.643 272.334,153.977 273.5,146.5 Z"/></g>
<g><path style="opacity:1" fill="#484ca3" d="M 499.5,169.5 C 499.5,169.167 499.5,168.833 499.5,168.5C 499.833,168.5 500.167,168.5 500.5,168.5C 512.167,168.5 523.833,168.5 535.5,168.5C 535.5,172.833 535.5,177.167 535.5,181.5C 522.5,181.5 509.5,181.5 496.5,181.5C 495.833,181.5 495.5,181.167 495.5,180.5C 508.5,180.5 521.5,180.5 534.5,180.5C 534.5,176.833 534.5,173.167 534.5,169.5C 522.833,169.5 511.167,169.5 499.5,169.5 Z"/></g>
<g><path style="opacity:1" fill="#5c5fb1" d="M 626.5,169.5 C 626.5,169.167 626.5,168.833 626.5,168.5C 626.833,168.5 627.167,168.5 627.5,168.5C 639.167,168.5 650.833,168.5 662.5,168.5C 662.5,172.833 662.5,177.167 662.5,181.5C 662.167,181.5 661.833,181.5 661.5,181.5C 661.5,177.5 661.5,173.5 661.5,169.5C 649.833,169.5 638.167,169.5 626.5,169.5 Z"/></g>
<g><path style="opacity:1" fill="#0a1486" d="M 860.5,135.5 C 863.962,134.518 867.629,134.185 871.5,134.5C 871.172,146.012 871.505,157.346 872.5,168.5C 879.982,169.492 887.648,169.825 895.5,169.5C 888.476,170.215 881.31,170.882 874,171.5C 870.349,170.375 868.849,167.875 869.5,164C 870.536,154.849 870.702,145.682 870,136.5C 866.943,135.549 863.777,135.216 860.5,135.5 Z"/></g>
<g><path style="opacity:1" fill="#ccd2f1" d="M 425.5,167.5 C 425.665,173.163 423.665,177.83 419.5,181.5C 419.5,180.833 419.5,180.167 419.5,179.5C 420.562,174.947 422.562,170.947 425.5,167.5 Z"/></g>
<g><path style="opacity:1" fill="#0311ab" d="M 271.5,170.5 C 277.509,170.334 283.509,170.501 289.5,171C 294.02,172.481 298.686,173.648 303.5,174.5C 302.049,175.906 300.716,177.406 299.5,179C 295.113,179.226 290.779,179.726 286.5,180.5C 285.107,178.326 285.44,176.493 287.5,175C 282.292,173.603 276.959,173.103 271.5,173.5C 271.5,172.5 271.5,171.5 271.5,170.5 Z"/></g>
<g><path style="opacity:1" fill="#141995" d="M 427.5,159.5 C 427.037,162.221 426.371,164.888 425.5,167.5C 422.562,170.947 420.562,174.947 419.5,179.5C 415.004,181.237 411.004,180.571 407.5,177.5C 406.034,174.753 405.201,171.753 405,168.5C 404.617,167.944 404.117,167.611 403.5,167.5C 403.5,166.5 403.5,165.5 403.5,164.5C 405.517,166.781 407.184,169.447 408.5,172.5C 409.736,171.754 411.07,171.421 412.5,171.5C 412.672,173.492 412.005,175.158 410.5,176.5C 412.833,177.833 415.167,177.833 417.5,176.5C 416.585,175.672 415.919,174.672 415.5,173.5C 415.737,170.937 416.237,170.937 417,173.5C 419.302,169.854 421.636,166.187 424,162.5C 424.759,160.937 425.926,159.937 427.5,159.5 Z"/></g>
<g><path style="opacity:1" fill="#0a14a4" d="M 860.5,135.5 C 863.777,135.216 866.943,135.549 870,136.5C 870.702,145.682 870.536,154.849 869.5,164C 868.849,167.875 870.349,170.375 874,171.5C 881.31,170.882 888.476,170.215 895.5,169.5C 895.5,158.167 895.5,146.833 895.5,135.5C 898.85,135.335 902.183,135.502 905.5,136C 906.435,138.381 906.768,140.881 906.5,143.5C 904.41,140.886 902.243,140.886 900,143.5C 899.811,159.871 898.978,176.205 897.5,192.5C 891.303,193.817 885.136,193.817 879,192.5C 877.383,193.536 877.216,194.703 878.5,196C 884.348,196.173 890.015,196.673 895.5,197.5C 885.903,198.097 876.57,197.431 867.5,195.5C 867.5,192.5 867.5,189.5 867.5,186.5C 877.015,186.827 886.348,186.494 895.5,185.5C 895.5,184.167 895.5,182.833 895.5,181.5C 885.781,181.782 876.114,181.449 866.5,180.5C 865.167,179.833 864.167,178.833 863.5,177.5C 862.97,175.076 862.136,172.743 861,170.5C 860.5,158.838 860.333,147.171 860.5,135.5 Z"/></g>
<g><path style="opacity:1" fill="#0412a5" d="M 689.5,179.5 C 688.833,179.5 688.167,179.5 687.5,179.5C 685.369,177.389 683.702,175.056 682.5,172.5C 682.173,162.652 682.506,152.986 683.5,143.5C 685.093,142.652 686.26,141.319 687,139.5C 696.587,141.154 706.087,141.487 715.5,140.5C 715.5,141.5 715.5,142.5 715.5,143.5C 709.839,144.777 704.172,144.777 698.5,143.5C 696.962,143.453 695.962,144.12 695.5,145.5C 694.833,145.5 694.5,145.833 694.5,146.5C 693.883,146.611 693.383,146.944 693,147.5C 692.333,154.833 692.333,162.167 693,169.5C 693.5,170 694,170.5 694.5,171C 702.803,170.713 711.136,170.546 719.5,170.5C 720.134,162.097 719.467,154.097 717.5,146.5C 717.5,145.833 717.167,145.5 716.5,145.5C 716.821,143.952 717.821,143.285 719.5,143.5C 719.5,141.833 719.5,140.167 719.5,138.5C 710.408,138.463 701.408,138.463 692.5,138.5C 692.5,137.5 692.5,136.5 692.5,135.5C 700.174,135.666 707.841,135.5 715.5,135C 716.416,134.722 717.082,134.222 717.5,133.5C 719.436,129.285 720.103,124.619 719.5,119.5C 722.5,119.5 725.5,119.5 728.5,119.5C 728.5,139.5 728.5,159.5 728.5,179.5C 715.5,179.5 702.5,179.5 689.5,179.5 Z"/></g>
<g><path style="opacity:1" fill="#2b2692" d="M 694.5,146.5 C 694.5,154.167 694.5,161.833 694.5,169.5C 702.352,169.825 710.018,169.492 717.5,168.5C 717.5,161.167 717.5,153.833 717.5,146.5C 719.467,154.097 720.134,162.097 719.5,170.5C 711.136,170.546 702.803,170.713 694.5,171C 694,170.5 693.5,170 693,169.5C 692.333,162.167 692.333,154.833 693,147.5C 693.383,146.944 693.883,146.611 694.5,146.5 Z"/></g>
<g><path style="opacity:1" fill="#7c83d2" d="M 695.5,145.5 C 702.5,145.5 709.5,145.5 716.5,145.5C 717.167,145.5 717.5,145.833 717.5,146.5C 710.167,146.5 702.833,146.5 695.5,146.5C 695.5,153.833 695.5,161.167 695.5,168.5C 702.833,168.5 710.167,168.5 717.5,168.5C 710.018,169.492 702.352,169.825 694.5,169.5C 694.5,161.833 694.5,154.167 694.5,146.5C 694.5,145.833 694.833,145.5 695.5,145.5 Z"/></g>
<g><path style="opacity:1" fill="#f9fbfa" d="M 717.5,146.5 C 717.5,153.833 717.5,161.167 717.5,168.5C 710.167,168.5 702.833,168.5 695.5,168.5C 695.5,161.167 695.5,153.833 695.5,146.5C 702.833,146.5 710.167,146.5 717.5,146.5 Z"/></g>
<g><path style="opacity:1" fill="#0311a9" d="M 804.5,133.5 C 804.833,133.5 805.167,133.5 805.5,133.5C 806.681,135.067 808.347,135.901 810.5,136C 809.167,137.333 809.167,138.667 810.5,140C 808.5,140.333 806.5,140.667 804.5,141C 807.633,140.954 810.3,141.954 812.5,144C 809.801,143.562 807.135,143.728 804.5,144.5C 803.702,151.45 803.202,158.45 803,165.5C 801.989,166.337 800.822,166.67 799.5,166.5C 799.5,167.5 799.5,168.5 799.5,169.5C 804.5,168.5 806.5,170.5 805.5,175.5C 807.199,175.66 808.866,175.494 810.5,175C 809.62,173.644 809.286,172.144 809.5,170.5C 816.558,170.797 823.558,170.464 830.5,169.5C 831.098,161.021 831.098,152.355 830.5,143.5C 831.5,143.5 832.5,143.5 833.5,143.5C 832.224,154.603 832.557,165.603 834.5,176.5C 833.5,177.167 832.5,177.833 831.5,178.5C 818.851,179.499 806.184,179.832 793.5,179.5C 793.5,178.167 793.5,176.833 793.5,175.5C 794.332,157.671 794.832,139.671 795,121.5C 797.719,120.556 800.552,120.223 803.5,120.5C 803.182,125.032 803.515,129.366 804.5,133.5 Z"/></g>
<g><path style="opacity:1" fill="#747ac2" d="M 805.5,146.5 C 812.982,145.508 820.648,145.175 828.5,145.5C 828.825,153.352 828.492,161.018 827.5,168.5C 827.5,161.167 827.5,153.833 827.5,146.5C 820.167,146.5 812.833,146.5 805.5,146.5 Z"/></g>
<g><path style="opacity:1" fill="#fafcfa" d="M 805.5,146.5 C 812.833,146.5 820.167,146.5 827.5,146.5C 827.5,153.833 827.5,161.167 827.5,168.5C 820.167,168.5 812.833,168.5 805.5,168.5C 805.5,161.167 805.5,153.833 805.5,146.5 Z"/></g>
<g><path style="opacity:1" fill="#0311a7" d="M 374.5,173.5 C 374.672,174.492 374.338,175.158 373.5,175.5C 372.417,175.461 371.417,175.127 370.5,174.5C 369.646,175.948 368.646,177.281 367.5,178.5C 356.181,179.666 344.848,179.832 333.5,179C 330.368,166.732 329.702,154.232 331.5,141.5C 332.357,140.264 333.023,138.931 333.5,137.5C 345.152,136.334 356.819,136.167 368.5,137C 370.359,137.684 372.026,138.684 373.5,140C 374.487,151.085 374.821,162.252 374.5,173.5 Z"/></g>
<g><path style="opacity:1" fill="#312f9a" d="M 351.5,143.5 C 356.107,144.19 360.774,144.19 365.5,143.5C 365.021,152.322 365.688,160.989 367.5,169.5C 357.617,170.744 347.784,170.744 338,169.5C 338.062,161.487 338.562,153.487 339.5,145.5C 343.647,144.833 347.647,144.166 351.5,143.5 Z"/></g>
<g><path style="opacity:1" fill="#f6f8f9" d="M 340.5,146.5 C 348.167,146.5 355.833,146.5 363.5,146.5C 363.5,153.833 363.5,161.167 363.5,168.5C 355.833,168.5 348.167,168.5 340.5,168.5C 340.5,161.167 340.5,153.833 340.5,146.5 Z"/></g>
<g><path style="opacity:1" fill="#0a147f" d="M 442.5,175.5 C 443.922,175.75 444.922,176.583 445.5,178C 448.146,178.497 450.813,178.664 453.5,178.5C 451.012,180.388 448.012,181.055 444.5,180.5C 443.559,178.95 442.893,177.284 442.5,175.5 Z"/></g>
<g><path style="opacity:1" fill="#494f94" d="M 407.5,177.5 C 411.004,180.571 415.004,181.237 419.5,179.5C 419.5,180.167 419.5,180.833 419.5,181.5C 415.774,181.823 412.107,181.489 408.5,180.5C 407.873,179.583 407.539,178.583 407.5,177.5 Z"/></g>
<g><path style="opacity:1" fill="#464a93" d="M 455.5,175.5 C 455.741,177.898 455.074,179.898 453.5,181.5C 450.287,181.81 447.287,181.477 444.5,180.5C 448.012,181.055 451.012,180.388 453.5,178.5C 454.167,177.5 454.833,176.5 455.5,175.5 Z"/></g>
<g><path style="opacity:1" fill="#b9bded" d="M 440.5,173.5 C 441.167,174.167 441.833,174.833 442.5,175.5C 442.893,177.284 443.559,178.95 444.5,180.5C 447.287,181.477 450.287,181.81 453.5,181.5C 445.381,184.928 441.048,182.261 440.5,173.5 Z"/></g>
<g><path style="opacity:1" fill="#c1c7f5" d="M 535.5,168.5 C 536.486,172.97 536.819,177.637 536.5,182.5C 522.99,182.829 509.656,182.496 496.5,181.5C 509.5,181.5 522.5,181.5 535.5,181.5C 535.5,177.167 535.5,172.833 535.5,168.5 Z"/></g>
<g><path style="opacity:1" fill="#c1c7f4" d="M 620.5,180.5 C 634.13,181.446 647.797,181.78 661.5,181.5C 661.833,181.5 662.167,181.5 662.5,181.5C 649.431,182.175 636.265,182.842 623,183.5C 622.302,182.309 621.469,181.309 620.5,180.5 Z"/></g>
<g><path style="opacity:1" fill="#c5caf8" d="M 687.5,179.5 C 688.167,179.5 688.833,179.5 689.5,179.5C 690.209,180.404 691.209,180.737 692.5,180.5C 704.989,181.495 717.656,181.829 730.5,181.5C 717.673,182.66 704.673,182.827 691.5,182C 689.68,181.8 688.347,180.966 687.5,179.5 Z"/></g>
<g><path style="opacity:1" fill="#cdd2fa" d="M 838.5,175.5 C 838.833,175.5 839.167,175.5 839.5,175.5C 838.001,177.258 837.668,179.091 838.5,181C 836.661,182.132 834.661,182.965 832.5,183.5C 819.039,182.85 805.705,182.184 792.5,181.5C 805.677,181.829 818.677,181.495 831.5,180.5C 834.7,179.956 837.033,178.29 838.5,175.5 Z"/></g>
<g><path style="opacity:1" fill="#c6cbec" d="M 866.5,180.5 C 876.114,181.449 885.781,181.782 895.5,181.5C 895.5,182.833 895.5,184.167 895.5,185.5C 895.167,185.5 894.833,185.5 894.5,185.5C 894.5,184.5 894.5,183.5 894.5,182.5C 885.494,182.666 876.494,182.5 867.5,182C 866.944,181.617 866.611,181.117 866.5,180.5 Z"/></g>
<g><path style="opacity:1" fill="#5e63a5" d="M 894.5,185.5 C 894.833,185.5 895.167,185.5 895.5,185.5C 886.348,186.494 877.015,186.827 867.5,186.5C 867.5,189.5 867.5,192.5 867.5,195.5C 867.5,196.5 867.5,197.5 867.5,198.5C 866.515,194.366 866.182,190.032 866.5,185.5C 875.833,185.5 885.167,185.5 894.5,185.5 Z"/></g>
<g><path style="opacity:1" fill="#bdc1f7" d="M 298.5,181.5 C 290.35,182.493 282.017,182.826 273.5,182.5C 273.666,188.509 273.499,194.509 273,200.5C 268.733,201.822 264.566,201.822 260.5,200.5C 264.371,200.815 268.038,200.482 271.5,199.5C 272.49,193.69 272.823,187.69 272.5,181.5C 281.167,181.5 289.833,181.5 298.5,181.5 Z"/></g>
<g><path style="opacity:1" fill="#2a3393" d="M 867.5,195.5 C 876.57,197.431 885.903,198.097 895.5,197.5C 896.5,197.5 897.5,197.5 898.5,197.5C 898.5,197.833 898.5,198.167 898.5,198.5C 888.167,198.5 877.833,198.5 867.5,198.5C 867.5,197.5 867.5,196.5 867.5,195.5 Z"/></g>
<g><path style="opacity:1" fill="#b4bcea" d="M 905.5,191.5 C 905.833,191.5 906.167,191.5 906.5,191.5C 906.833,191.5 907.167,191.5 907.5,191.5C 905.938,195.733 902.938,198.067 898.5,198.5C 898.5,198.167 898.5,197.833 898.5,197.5C 902.055,196.946 904.388,194.946 905.5,191.5 Z"/></g>
<g><path style="opacity:1" fill="#e7ebfe" d="M 797.5,241.5 C 759.5,241.5 721.5,241.5 683.5,241.5C 720.373,240.827 757.373,240.161 794.5,239.5C 795.739,239.942 796.739,240.609 797.5,241.5 Z"/></g>
<g><path style="opacity:1" fill="#676ba7" d="M 167.5,242.5 C 167.5,242.167 167.5,241.833 167.5,241.5C 177.167,241.5 186.833,241.5 196.5,241.5C 196.832,275.004 196.498,308.338 195.5,341.5C 195.5,340.5 195.5,339.5 195.5,338.5C 195.832,306.662 195.498,274.996 194.5,243.5C 185.682,242.507 176.682,242.173 167.5,242.5 Z"/></g>
<g><path style="opacity:1" fill="#4f549f" d="M 372.5,244.5 C 368.901,243.656 365.234,243.323 361.5,243.5C 325.671,242.502 289.671,242.168 253.5,242.5C 253.5,243.833 253.5,245.167 253.5,246.5C 253.5,248.167 253.5,249.833 253.5,251.5C 253.5,281.167 253.5,310.833 253.5,340.5C 289.5,340.5 325.5,340.5 361.5,340.5C 325.671,341.498 289.671,341.832 253.5,341.5C 252.502,308.338 252.168,275.004 252.5,241.5C 290.835,241.333 329.168,241.5 367.5,242C 369.653,242.099 371.319,242.933 372.5,244.5 Z"/></g>
<g><path style="opacity:1" fill="#424789" d="M 475.5,242.5 C 465.494,242.334 455.494,242.5 445.5,243C 444.748,243.671 444.414,244.504 444.5,245.5C 442.896,244.713 442.229,243.38 442.5,241.5C 453.679,241.172 464.679,241.505 475.5,242.5 Z"/></g>
<g><path style="opacity:1" fill="#454a90" d="M 616.5,243.5 C 605.931,242.182 595.265,242.182 584.5,243.5C 589.624,242.171 595.124,241.505 601,241.5C 606.5,241.833 612,242.167 617.5,242.5C 617.376,243.107 617.043,243.44 616.5,243.5 Z"/></g>
<g><path style="opacity:1" fill="#5a5fac" d="M 676.5,242.5 C 676.5,242.167 676.5,241.833 676.5,241.5C 678.833,241.5 681.167,241.5 683.5,241.5C 721.5,241.5 759.5,241.5 797.5,241.5C 798.492,248.648 798.825,255.981 798.5,263.5C 767.5,263.5 736.5,263.5 705.5,263.5C 705.5,262.833 705.833,262.5 706.5,262.5C 736.5,262.5 766.5,262.5 796.5,262.5C 797.491,256.021 797.824,249.354 797.5,242.5C 757.167,242.5 716.833,242.5 676.5,242.5 Z"/></g>
<g><path style="opacity:1" fill="#081083" d="M 361.5,243.5 C 325.484,242.84 289.818,243.506 254.5,245.5C 254.5,246.167 254.167,246.5 253.5,246.5C 253.5,245.167 253.5,243.833 253.5,242.5C 289.671,242.168 325.671,242.502 361.5,243.5 Z"/></g>
<g><path style="opacity:1" fill="#1d1c8a" d="M 475.5,242.5 C 477.326,244.147 478.66,246.147 479.5,248.5C 476.23,248.698 474.23,247.198 473.5,244C 464.482,243.168 455.482,243.335 446.5,244.5C 447.539,246.531 449.205,247.864 451.5,248.5C 452.167,250.5 452.833,252.5 453.5,254.5C 454.325,255.386 455.325,255.719 456.5,255.5C 456.517,257.565 456.85,259.565 457.5,261.5C 456.833,261.167 456.167,260.833 455.5,260.5C 454.92,258.251 453.587,256.585 451.5,255.5C 449.192,252.185 446.859,248.851 444.5,245.5C 444.414,244.504 444.748,243.671 445.5,243C 455.494,242.5 465.494,242.334 475.5,242.5 Z"/></g>
<g><path style="opacity:1" fill="#0a1180" d="M 676.5,242.5 C 716.833,242.5 757.167,242.5 797.5,242.5C 797.824,249.354 797.491,256.021 796.5,262.5C 796.5,256.167 796.5,249.833 796.5,243.5C 760.167,243.5 723.833,243.5 687.5,243.5C 686.167,243.5 684.833,243.5 683.5,243.5C 682.5,243.5 681.5,243.5 680.5,243.5C 679.5,243.5 678.5,243.5 677.5,243.5C 677.196,275.525 677.529,307.525 678.5,339.5C 678.5,339.833 678.5,340.167 678.5,340.5C 677.833,340.5 677.167,340.5 676.5,340.5C 676.5,307.833 676.5,275.167 676.5,242.5 Z"/></g>
<g><path style="opacity:1" fill="#07139f" d="M 361.5,243.5 C 365.234,243.323 368.901,243.656 372.5,244.5C 374.714,245.874 377.047,247.041 379.5,248C 380.721,250.034 382.055,251.867 383.5,253.5C 381.246,252.746 379.413,251.413 378,249.5C 376.234,248.767 374.401,248.433 372.5,248.5C 372.238,249.978 372.571,251.311 373.5,252.5C 377.657,253.829 377.991,254.829 374.5,255.5C 372.319,254.129 369.986,253.129 367.5,252.5C 367.5,251.5 367.5,250.5 367.5,249.5C 330.167,249.5 292.833,249.5 255.5,249.5C 255.5,248.5 255.5,247.5 255.5,246.5C 293.21,246.173 330.876,246.506 368.5,247.5C 369.386,246.675 369.719,245.675 369.5,244.5C 331.094,244.173 292.761,244.506 254.5,245.5C 289.818,243.506 325.484,242.84 361.5,243.5 Z"/></g>
<g><path style="opacity:1" fill="#0a15a0" d="M 892.5,243.5 C 893.5,243.5 894.5,243.5 895.5,243.5C 897.749,247.42 900.749,250.754 904.5,253.5C 902.063,253.114 900.063,251.947 898.5,250C 886.838,249.5 875.171,249.333 863.5,249.5C 863.5,247.5 863.5,245.5 863.5,243.5C 873.167,243.5 882.833,243.5 892.5,243.5 Z"/></g>
<g><path style="opacity:1" fill="#0210a6" d="M 863.5,249.5 C 875.171,249.333 886.838,249.5 898.5,250C 900.063,251.947 902.063,253.114 904.5,253.5C 904.709,254.922 905.209,256.255 906,257.5C 909.653,261.262 913.486,264.595 917.5,267.5C 916.667,267.833 915.833,268.167 915,268.5C 912.835,267.249 910.501,266.249 908,265.5C 906.833,265.667 905.667,265.833 904.5,266C 906.303,268.103 908.636,268.936 911.5,268.5C 911.374,270.2 910.707,271.7 909.5,273C 911.379,274.997 911.712,277.164 910.5,279.5C 907.72,277.046 905.053,274.546 902.5,272C 901.207,271.51 899.873,271.343 898.5,271.5C 898.5,270.5 898.5,269.5 898.5,268.5C 897.5,268.5 896.5,268.5 895.5,268.5C 897.361,270.745 898.361,273.412 898.5,276.5C 897.5,276.5 896.5,276.5 895.5,276.5C 894.058,275.18 893.392,273.514 893.5,271.5C 892.5,271.5 891.5,271.5 890.5,271.5C 889.533,292.8 889.2,314.133 889.5,335.5C 889.5,337.167 889.5,338.833 889.5,340.5C 880.833,340.5 872.167,340.5 863.5,340.5C 863.5,310.167 863.5,279.833 863.5,249.5 Z"/></g>
<g><path style="opacity:1" fill="#09108b" d="M 167.5,242.5 C 176.682,242.173 185.682,242.507 194.5,243.5C 185.833,243.5 177.167,243.5 168.5,243.5C 168.5,275.5 168.5,307.5 168.5,339.5C 169.833,339.5 171.167,339.5 172.5,339.5C 179.167,339.5 185.833,339.5 192.5,339.5C 184.35,340.493 176.017,340.826 167.5,340.5C 167.5,307.833 167.5,275.167 167.5,242.5 Z"/></g>
<g><path style="opacity:1" fill="#05129a" d="M 253.5,251.5 C 291.285,253.153 329.285,254.153 367.5,254.5C 366.284,256.962 365.618,259.629 365.5,262.5C 366.74,281.5 366.74,300.5 365.5,319.5C 365.053,298.082 363.719,276.748 361.5,255.5C 360.167,255.5 358.833,255.5 357.5,255.5C 357.5,257.833 357.5,260.167 357.5,262.5C 358.332,281.329 358.832,300.329 359,319.5C 359.167,303.49 359.667,287.49 360.5,271.5C 361.666,288.49 361.833,305.49 361,322.5C 360.5,323 360,323.5 359.5,324C 334.546,322.273 309.546,322.106 284.5,323.5C 283.106,323.379 281.772,323.046 280.5,322.5C 279.245,300.159 279.245,277.826 280.5,255.5C 279.167,255.5 277.833,255.5 276.5,255.5C 276.5,276.833 276.5,298.167 276.5,319.5C 275.5,319.5 274.5,319.5 273.5,319.5C 274.143,303.093 273.476,286.927 271.5,271C 272.718,269.562 273.385,267.895 273.5,266C 272.236,262.493 272.236,258.993 273.5,255.5C 267.167,255.5 260.833,255.5 254.5,255.5C 254.5,282.167 254.5,308.833 254.5,335.5C 265.215,336.202 275.715,335.202 286,332.5C 308.333,333.833 330.667,333.833 353,332.5C 359.971,334.355 359.471,335.521 351.5,336C 319.502,336.5 287.502,336.667 255.5,336.5C 255.5,337.5 255.5,338.5 255.5,339.5C 293.844,339.763 332.177,339.429 370.5,338.5C 369.5,339.167 368.5,339.833 367.5,340.5C 365.5,340.5 363.5,340.5 361.5,340.5C 325.5,340.5 289.5,340.5 253.5,340.5C 253.5,310.833 253.5,281.167 253.5,251.5 Z"/></g>
<g><path style="opacity:1" fill="#0211a0" d="M 680.5,243.5 C 681.5,243.5 682.5,243.5 683.5,243.5C 683.5,244.5 683.5,245.5 683.5,246.5C 717.5,246.5 751.5,246.5 785.5,246.5C 785.5,248.833 785.5,251.167 785.5,253.5C 786.833,253.5 788.167,253.5 789.5,253.5C 788.459,250.458 788.459,247.458 789.5,244.5C 755.329,244.832 721.329,244.498 687.5,243.5C 723.833,243.5 760.167,243.5 796.5,243.5C 796.5,249.833 796.5,256.167 796.5,262.5C 766.5,262.5 736.5,262.5 706.5,262.5C 706.374,260.8 705.707,259.3 704.5,258C 704.645,257.228 704.978,256.561 705.5,256C 699.141,255.831 692.807,255.331 686.5,254.5C 718.826,253.5 751.16,253.167 783.5,253.5C 783.5,252.5 783.5,251.5 783.5,250.5C 750.167,250.5 716.833,250.5 683.5,250.5C 683.544,278.727 683.544,307.06 683.5,335.5C 682.5,335.5 681.5,335.5 680.5,335.5C 680.5,304.833 680.5,274.167 680.5,243.5 Z"/></g>
<g><path style="opacity:1" fill="#0110ae" d="M 683.5,243.5 C 684.833,243.5 686.167,243.5 687.5,243.5C 721.329,244.498 755.329,244.832 789.5,244.5C 788.459,247.458 788.459,250.458 789.5,253.5C 788.167,253.5 786.833,253.5 785.5,253.5C 785.5,251.167 785.5,248.833 785.5,246.5C 751.5,246.5 717.5,246.5 683.5,246.5C 683.5,245.5 683.5,244.5 683.5,243.5 Z"/></g>
<g><path style="opacity:1" fill="#020eae" d="M 194.5,243.5 C 194.5,245.167 194.5,246.833 194.5,248.5C 186.859,245.911 179.192,245.911 171.5,248.5C 171.5,249.833 171.5,251.167 171.5,252.5C 172.833,252.5 174.167,252.5 175.5,252.5C 175.5,251.5 175.5,250.5 175.5,249.5C 180.833,249.5 186.167,249.5 191.5,249.5C 191.5,250.833 191.5,252.167 191.5,253.5C 185.697,252.913 180.197,253.58 175,255.5C 174.667,282.167 174.333,308.833 174,335.5C 173.59,336.901 173.09,338.234 172.5,339.5C 171.167,339.5 169.833,339.5 168.5,339.5C 168.5,307.5 168.5,275.5 168.5,243.5C 177.167,243.5 185.833,243.5 194.5,243.5 Z"/></g>
<g><path style="opacity:1" fill="#00139d" d="M 170.5,255.5 C 171.833,268.483 172.499,281.816 172.5,295.5C 172.167,308.833 171.833,322.167 171.5,335.5C 170.5,308.842 170.167,282.175 170.5,255.5 Z"/></g>
<g><path style="opacity:1" fill="#020fa5" d="M 194.5,248.5 C 194.81,278.532 194.477,308.532 193.5,338.5C 193.5,339.167 193.167,339.5 192.5,339.5C 185.833,339.5 179.167,339.5 172.5,339.5C 173.09,338.234 173.59,336.901 174,335.5C 174.333,308.833 174.667,282.167 175,255.5C 180.197,253.58 185.697,252.913 191.5,253.5C 191.5,252.167 191.5,250.833 191.5,249.5C 186.167,249.5 180.833,249.5 175.5,249.5C 175.5,250.5 175.5,251.5 175.5,252.5C 174.167,252.5 172.833,252.5 171.5,252.5C 171.5,251.167 171.5,249.833 171.5,248.5C 179.192,245.911 186.859,245.911 194.5,248.5 Z"/></g>
<g><path style="opacity:1" fill="#26299d" d="M 194.5,243.5 C 195.498,274.996 195.832,306.662 195.5,338.5C 194.833,338.5 194.167,338.5 193.5,338.5C 194.477,308.532 194.81,278.532 194.5,248.5C 194.5,246.833 194.5,245.167 194.5,243.5 Z"/></g>
<g><path style="opacity:1" fill="#020fa8" d="M 383.5,253.5 C 383.328,254.492 383.662,255.158 384.5,255.5C 384.794,279.526 384.46,303.526 383.5,327.5C 383.5,328.167 383.5,328.833 383.5,329.5C 379.735,329.676 377.735,331.676 377.5,335.5C 375.566,337.297 373.233,338.297 370.5,338.5C 332.177,339.429 293.844,339.763 255.5,339.5C 255.5,338.5 255.5,337.5 255.5,336.5C 287.502,336.667 319.502,336.5 351.5,336C 359.471,335.521 359.971,334.355 353,332.5C 330.667,333.833 308.333,333.833 286,332.5C 275.715,335.202 265.215,336.202 254.5,335.5C 254.5,308.833 254.5,282.167 254.5,255.5C 260.833,255.5 267.167,255.5 273.5,255.5C 272.236,258.993 272.236,262.493 273.5,266C 273.385,267.895 272.718,269.562 271.5,271C 273.476,286.927 274.143,303.093 273.5,319.5C 274.5,319.5 275.5,319.5 276.5,319.5C 276.5,298.167 276.5,276.833 276.5,255.5C 277.833,255.5 279.167,255.5 280.5,255.5C 279.245,277.826 279.245,300.159 280.5,322.5C 281.772,323.046 283.106,323.379 284.5,323.5C 309.546,322.106 334.546,322.273 359.5,324C 360,323.5 360.5,323 361,322.5C 361.833,305.49 361.666,288.49 360.5,271.5C 359.667,287.49 359.167,303.49 359,319.5C 358.832,300.329 358.332,281.329 357.5,262.5C 357.5,260.167 357.5,257.833 357.5,255.5C 358.833,255.5 360.167,255.5 361.5,255.5C 363.719,276.748 365.053,298.082 365.5,319.5C 366.74,300.5 366.74,281.5 365.5,262.5C 365.618,259.629 366.284,256.962 367.5,254.5C 329.285,254.153 291.285,253.153 253.5,251.5C 253.5,249.833 253.5,248.167 253.5,246.5C 254.167,246.5 254.5,246.167 254.5,245.5C 292.761,244.506 331.094,244.173 369.5,244.5C 369.719,245.675 369.386,246.675 368.5,247.5C 330.876,246.506 293.21,246.173 255.5,246.5C 255.5,247.5 255.5,248.5 255.5,249.5C 292.833,249.5 330.167,249.5 367.5,249.5C 367.5,250.5 367.5,251.5 367.5,252.5C 369.986,253.129 372.319,254.129 374.5,255.5C 377.991,254.829 377.657,253.829 373.5,252.5C 372.571,251.311 372.238,249.978 372.5,248.5C 374.401,248.433 376.234,248.767 378,249.5C 379.413,251.413 381.246,252.746 383.5,253.5 Z"/></g>
<g><path style="opacity:1" fill="#0812a3" d="M 616.5,243.5 C 612.254,248.991 608.254,254.658 604.5,260.5C 602.413,261.585 601.08,263.251 600.5,265.5C 598.413,266.585 597.08,268.251 596.5,270.5C 596.5,271.167 596.167,271.5 595.5,271.5C 594.094,271.973 593.427,272.973 593.5,274.5C 592.167,276.167 590.833,277.833 589.5,279.5C 585.016,284.467 581.016,289.8 577.5,295.5C 575.167,298.167 572.833,300.833 570.5,303.5C 567.117,307.553 564.117,311.886 561.5,316.5C 560.272,317.306 559.272,318.306 558.5,319.5C 556.674,321.147 555.34,323.147 554.5,325.5C 552.738,326.262 551.738,327.596 551.5,329.5C 547.539,332.746 544.539,336.746 542.5,341.5C 534.14,341.831 525.807,341.498 517.5,340.5C 516.388,338.581 515.054,336.914 513.5,335.5C 510.606,331.421 507.439,327.421 504,323.5C 503.59,322.099 503.09,320.766 502.5,319.5C 502.528,315.905 501.195,312.905 498.5,310.5C 495.823,309.156 493.823,307.156 492.5,304.5C 491.675,303.614 490.675,303.281 489.5,303.5C 486.483,300.094 483.483,296.76 480.5,293.5C 478.461,288.746 475.461,284.746 471.5,281.5C 471.573,279.973 470.906,278.973 469.5,278.5C 468.92,276.251 467.587,274.585 465.5,273.5C 463.878,270.545 461.878,267.878 459.5,265.5C 459.267,263.938 458.6,262.605 457.5,261.5C 456.85,259.565 456.517,257.565 456.5,255.5C 455.325,255.719 454.325,255.386 453.5,254.5C 452.833,252.5 452.167,250.5 451.5,248.5C 449.205,247.864 447.539,246.531 446.5,244.5C 455.482,243.335 464.482,243.168 473.5,244C 474.23,247.198 476.23,248.698 479.5,248.5C 480.893,252.035 482.06,255.702 483,259.5C 487.211,261.891 490.544,265.224 493,269.5C 493.816,270.823 494.983,271.489 496.5,271.5C 500.574,274.245 503.574,277.912 505.5,282.5C 506.08,284.749 507.413,286.415 509.5,287.5C 516.172,296.002 523.006,304.335 530,312.5C 535.001,306.997 539.834,301.331 544.5,295.5C 546.587,294.415 547.92,292.749 548.5,290.5C 548.427,288.973 549.094,287.973 550.5,287.5C 552.914,286.089 554.581,284.089 555.5,281.5C 557.18,280.218 558.513,278.551 559.5,276.5C 561.25,275.341 562.25,273.674 562.5,271.5C 566.076,265.587 570.409,260.254 575.5,255.5C 576.833,255.5 578.167,255.5 579.5,255.5C 579.993,253.194 580.326,250.861 580.5,248.5C 582.587,247.415 583.92,245.749 584.5,243.5C 595.265,242.182 605.931,242.182 616.5,243.5 Z"/></g>
<g><path style="opacity:1" fill="#322d8d" d="M 580.5,248.5 C 580.326,250.861 579.993,253.194 579.5,255.5C 578.167,255.5 576.833,255.5 575.5,255.5C 576.433,252.63 578.1,250.296 580.5,248.5 Z"/></g>
<g><path style="opacity:1" fill="#6b6ec6" d="M 584.5,243.5 C 583.92,245.749 582.587,247.415 580.5,248.5C 581.08,246.251 582.413,244.585 584.5,243.5 Z"/></g>
<g><path style="opacity:1" fill="#020fa6" d="M 680.5,243.5 C 680.5,274.167 680.5,304.833 680.5,335.5C 681.5,335.5 682.5,335.5 683.5,335.5C 683.544,307.06 683.544,278.727 683.5,250.5C 716.833,250.5 750.167,250.5 783.5,250.5C 783.5,251.5 783.5,252.5 783.5,253.5C 751.16,253.167 718.826,253.5 686.5,254.5C 692.807,255.331 699.141,255.831 705.5,256C 704.978,256.561 704.645,257.228 704.5,258C 705.707,259.3 706.374,260.8 706.5,262.5C 705.833,262.5 705.5,262.833 705.5,263.5C 704.167,269.167 704.167,274.833 705.5,280.5C 705.5,280.833 705.5,281.167 705.5,281.5C 707.948,282.473 710.615,282.806 713.5,282.5C 713.5,284.167 713.5,285.833 713.5,287.5C 714.5,287.5 715.5,287.5 716.5,287.5C 716.5,285.833 716.5,284.167 716.5,282.5C 736.836,282.333 757.169,282.5 777.5,283C 778.807,288.779 778.807,294.612 777.5,300.5C 775.024,299.771 772.524,299.104 770,298.5C 747.959,300.465 725.792,301.132 703.5,300.5C 703.263,301.791 703.596,302.791 704.5,303.5C 704.5,308.833 704.5,314.167 704.5,319.5C 703.957,319.56 703.624,319.893 703.5,320.5C 730.158,321.5 756.825,321.833 783.5,321.5C 783.351,322.552 783.517,323.552 784,324.5C 784.739,323.426 785.739,322.759 787,322.5C 789.333,323.833 791.667,323.833 794,322.5C 795.03,322.836 795.53,323.503 795.5,324.5C 795.587,329.537 795.254,334.537 794.5,339.5C 755.833,339.5 717.167,339.5 678.5,339.5C 677.529,307.525 677.196,275.525 677.5,243.5C 678.5,243.5 679.5,243.5 680.5,243.5 Z"/></g>
<g><path style="opacity:1" fill="#f7feed" d="M 857.5,239.5 C 858.5,239.5 859.5,239.5 860.5,239.5C 860.699,271.466 860.365,303.466 859.5,335.5C 859.132,308.077 858.132,280.743 856.5,253.5C 857.385,248.878 857.718,244.211 857.5,239.5 Z"/></g>
<g><path style="opacity:1" fill="#7376b6" d="M 892.5,242.5 C 882.5,242.5 872.5,242.5 862.5,242.5C 862.168,275.338 862.502,308.004 863.5,340.5C 863.5,340.833 863.5,341.167 863.5,341.5C 861.507,308.517 860.84,275.183 861.5,241.5C 872.014,241.172 882.347,241.506 892.5,242.5 Z"/></g>
<g><path style="opacity:1" fill="#111075" d="M 892.5,242.5 C 892.5,242.833 892.5,243.167 892.5,243.5C 882.833,243.5 873.167,243.5 863.5,243.5C 863.5,245.5 863.5,247.5 863.5,249.5C 863.5,279.833 863.5,310.167 863.5,340.5C 862.502,308.004 862.168,275.338 862.5,242.5C 872.5,242.5 882.5,242.5 892.5,242.5 Z"/></g>
<g><path style="opacity:1" fill="#777ac3" d="M 994.5,341.5 C 994.5,340.5 994.5,339.5 994.5,338.5C 994.5,307.167 994.5,275.833 994.5,244.5C 985.56,242.528 976.227,241.861 966.5,242.5C 966.5,263.833 966.5,285.167 966.5,306.5C 965.833,307.833 965.167,307.833 964.5,306.5C 965.497,285.006 965.831,263.34 965.5,241.5C 975.5,241.5 985.5,241.5 995.5,241.5C 995.832,275.004 995.498,308.338 994.5,341.5 Z"/></g>
<g><path style="opacity:1" fill="#0b117a" d="M 994.5,244.5 C 985.54,243.585 976.54,243.252 967.5,243.5C 967.831,264.673 967.497,285.673 966.5,306.5C 966.5,285.167 966.5,263.833 966.5,242.5C 976.227,241.861 985.56,242.528 994.5,244.5 Z"/></g>
<g><path style="opacity:1" fill="#0310a6" d="M 993.5,338.5 C 993.082,339.222 992.416,339.722 991.5,340C 983.167,340.667 974.833,340.667 966.5,340C 964.968,339.3 963.968,338.134 963.5,336.5C 962.311,335.571 960.978,335.238 959.5,335.5C 953.119,330.444 947.119,325.111 941.5,319.5C 941.439,316.95 940.106,315.45 937.5,315C 935.34,312.669 933.34,310.169 931.5,307.5C 932.689,306.571 934.022,306.238 935.5,306.5C 935.5,305.5 935.5,304.5 935.5,303.5C 937.5,303.5 939.5,303.5 941.5,303.5C 941.281,304.675 941.614,305.675 942.5,306.5C 943.167,304.167 943.833,301.833 944.5,299.5C 946.246,301.854 948.579,302.854 951.5,302.5C 951.5,301.5 951.5,300.5 951.5,299.5C 953.942,299.354 954.609,300.187 953.5,302C 955.345,303.128 957.345,303.628 959.5,303.5C 960.805,306.968 963.305,309.301 967,310.5C 967.333,309.5 967.667,308.5 968,307.5C 968.5,289.503 968.667,271.503 968.5,253.5C 970.833,253.5 973.167,253.5 975.5,253.5C 975.5,252.5 975.5,251.5 975.5,250.5C 980.833,250.5 986.167,250.5 991.5,250.5C 991.5,251.833 991.5,253.167 991.5,254.5C 970.167,254.833 970.167,255.167 991.5,255.5C 990.886,283.287 991.553,310.954 993.5,338.5 Z"/></g>
<g><path style="opacity:1" fill="#04129d" d="M 994.5,244.5 C 994.5,275.833 994.5,307.167 994.5,338.5C 994.167,338.5 993.833,338.5 993.5,338.5C 991.553,310.954 990.886,283.287 991.5,255.5C 970.167,255.167 970.167,254.833 991.5,254.5C 991.5,253.167 991.5,251.833 991.5,250.5C 986.167,250.5 980.833,250.5 975.5,250.5C 975.5,251.5 975.5,252.5 975.5,253.5C 973.167,253.5 970.833,253.5 968.5,253.5C 968.667,271.503 968.5,289.503 968,307.5C 967.667,308.5 967.333,309.5 967,310.5C 963.305,309.301 960.805,306.968 959.5,303.5C 961.332,304.248 962.999,305.248 964.5,306.5C 965.167,307.833 965.833,307.833 966.5,306.5C 967.497,285.673 967.831,264.673 967.5,243.5C 976.54,243.252 985.54,243.585 994.5,244.5 Z"/></g>
<g><path style="opacity:1" fill="#aeb1e7" d="M 451.5,255.5 C 453.587,256.585 454.92,258.251 455.5,260.5C 453.413,259.415 452.08,257.749 451.5,255.5 Z"/></g>
<g><path style="opacity:1" fill="#212094" d="M 479.5,248.5 C 481.737,250.647 483.737,252.98 485.5,255.5C 485.241,257.989 486.241,259.656 488.5,260.5C 491.933,263.601 494.6,267.268 496.5,271.5C 494.983,271.489 493.816,270.823 493,269.5C 490.544,265.224 487.211,261.891 483,259.5C 482.06,255.702 480.893,252.035 479.5,248.5 Z"/></g>
<g><path style="opacity:1" fill="#4a519e" d="M 485.5,255.5 C 486.89,256.899 487.89,258.566 488.5,260.5C 486.241,259.656 485.241,257.989 485.5,255.5 Z"/></g>
<g><path style="opacity:1" fill="#9fa7df" d="M 455.5,260.5 C 456.167,260.833 456.833,261.167 457.5,261.5C 458.6,262.605 459.267,263.938 459.5,265.5C 457.413,264.415 456.08,262.749 455.5,260.5 Z"/></g>
<g><path style="opacity:1" fill="#8c92de" d="M 357.5,262.5 C 357.83,281.674 357.497,300.674 356.5,319.5C 356.5,300.833 356.5,282.167 356.5,263.5C 331.833,263.5 307.167,263.5 282.5,263.5C 282.5,282.167 282.5,300.833 282.5,319.5C 282.167,319.5 281.833,319.5 281.5,319.5C 281.5,300.5 281.5,281.5 281.5,262.5C 306.833,262.5 332.167,262.5 357.5,262.5 Z"/></g>
<g><path style="opacity:1" fill="#a6a7e8" d="M 604.5,260.5 C 603.92,262.749 602.587,264.415 600.5,265.5C 601.08,263.251 602.413,261.585 604.5,260.5 Z"/></g>
<g><path style="opacity:1" fill="#fdfefd" d="M 356.5,319.5 C 331.833,319.5 307.167,319.5 282.5,319.5C 282.5,300.833 282.5,282.167 282.5,263.5C 307.167,263.5 331.833,263.5 356.5,263.5C 356.5,282.167 356.5,300.833 356.5,319.5 Z"/></g>
<g><path style="opacity:1" fill="#8c92d4" d="M 600.5,265.5 C 599.92,267.749 598.587,269.415 596.5,270.5C 597.08,268.251 598.413,266.585 600.5,265.5 Z"/></g>
<g><path style="opacity:1" fill="#0f157e" d="M 384.5,255.5 C 385.663,278.996 385.83,302.663 385,326.5C 384.617,327.056 384.117,327.389 383.5,327.5C 384.46,303.526 384.794,279.526 384.5,255.5 Z"/></g>
<g><path style="opacity:1" fill="#0b159b" d="M 904.5,253.5 C 914.729,262.347 924.729,271.347 934.5,280.5C 931.969,279.97 929.969,278.636 928.5,276.5C 924.805,278.243 922.139,277.243 920.5,273.5C 920.608,272.558 920.941,271.725 921.5,271C 918.881,271.083 916.214,271.25 913.5,271.5C 913.38,273.734 913.713,275.901 914.5,278C 912.975,280.03 911.642,282.197 910.5,284.5C 907.72,281.936 904.72,279.603 901.5,277.5C 900.614,278.325 900.281,279.325 900.5,280.5C 899.374,278.464 897.707,277.13 895.5,276.5C 896.5,276.5 897.5,276.5 898.5,276.5C 898.361,273.412 897.361,270.745 895.5,268.5C 896.5,268.5 897.5,268.5 898.5,268.5C 898.5,269.5 898.5,270.5 898.5,271.5C 899.873,271.343 901.207,271.51 902.5,272C 905.053,274.546 907.72,277.046 910.5,279.5C 911.712,277.164 911.379,274.997 909.5,273C 910.707,271.7 911.374,270.2 911.5,268.5C 908.636,268.936 906.303,268.103 904.5,266C 905.667,265.833 906.833,265.667 908,265.5C 910.501,266.249 912.835,267.249 915,268.5C 915.833,268.167 916.667,267.833 917.5,267.5C 913.486,264.595 909.653,261.262 906,257.5C 905.209,256.255 904.709,254.922 904.5,253.5 Z"/></g>
<g><path style="opacity:1" fill="#6976b6" d="M 562.5,271.5 C 562.25,273.674 561.25,275.341 559.5,276.5C 559.75,274.326 560.75,272.659 562.5,271.5 Z"/></g>
<g><path style="opacity:1" fill="#858ad5" d="M 595.5,271.5 C 595.573,273.027 594.906,274.027 593.5,274.5C 593.427,272.973 594.094,271.973 595.5,271.5 Z"/></g>
<g><path style="opacity:1" fill="#a5abdb" d="M 465.5,273.5 C 467.587,274.585 468.92,276.251 469.5,278.5C 467.413,277.415 466.08,275.749 465.5,273.5 Z"/></g>
<g><path style="opacity:1" fill="#5654a8" d="M 559.5,276.5 C 558.513,278.551 557.18,280.218 555.5,281.5C 555.67,278.796 557.003,277.129 559.5,276.5 Z"/></g>
<g><path style="opacity:1" fill="#5d5eac" d="M 505.5,282.5 C 507.587,283.585 508.92,285.251 509.5,287.5C 507.413,286.415 506.08,284.749 505.5,282.5 Z"/></g>
<g><path style="opacity:1" fill="#6666b9" d="M 555.5,281.5 C 554.581,284.089 552.914,286.089 550.5,287.5C 551.419,284.911 553.086,282.911 555.5,281.5 Z"/></g>
<g><path style="opacity:1" fill="#0b13a3" d="M 934.5,280.5 C 938.54,284.542 942.873,288.209 947.5,291.5C 948.585,293.587 950.251,294.92 952.5,295.5C 954.885,298.212 957.218,300.878 959.5,303.5C 957.345,303.628 955.345,303.128 953.5,302C 954.609,300.187 953.942,299.354 951.5,299.5C 951.5,300.5 951.5,301.5 951.5,302.5C 948.579,302.854 946.246,301.854 944.5,299.5C 943.833,301.833 943.167,304.167 942.5,306.5C 941.614,305.675 941.281,304.675 941.5,303.5C 939.5,303.5 937.5,303.5 935.5,303.5C 935.5,304.5 935.5,305.5 935.5,306.5C 934.022,306.238 932.689,306.571 931.5,307.5C 933.34,310.169 935.34,312.669 937.5,315C 940.106,315.45 941.439,316.95 941.5,319.5C 931.775,311.626 922.109,303.459 912.5,295C 909.637,290.972 906.304,287.472 902.5,284.5C 901.4,283.395 900.733,282.062 900.5,280.5C 900.281,279.325 900.614,278.325 901.5,277.5C 904.72,279.603 907.72,281.936 910.5,284.5C 911.642,282.197 912.975,280.03 914.5,278C 913.713,275.901 913.38,273.734 913.5,271.5C 916.214,271.25 918.881,271.083 921.5,271C 920.941,271.725 920.608,272.558 920.5,273.5C 922.139,277.243 924.805,278.243 928.5,276.5C 929.969,278.636 931.969,279.97 934.5,280.5 Z"/></g>
<g><path style="opacity:1" fill="#3134a2" d="M 895.5,276.5 C 897.707,277.13 899.374,278.464 900.5,280.5C 900.733,282.062 901.4,283.395 902.5,284.5C 899.206,281.844 895.873,279.178 892.5,276.5C 892.44,275.957 892.107,275.624 891.5,275.5C 890.5,295.489 890.167,315.489 890.5,335.5C 890.167,335.5 889.833,335.5 889.5,335.5C 889.2,314.133 889.533,292.8 890.5,271.5C 891.5,271.5 892.5,271.5 893.5,271.5C 893.392,273.514 894.058,275.18 895.5,276.5 Z"/></g>
<g><path style="opacity:1" fill="#acb1f0" d="M 892.5,276.5 C 891.833,298.167 891.167,319.833 890.5,341.5C 890.5,339.5 890.5,337.5 890.5,335.5C 890.167,315.489 890.5,295.489 891.5,275.5C 892.107,275.624 892.44,275.957 892.5,276.5 Z"/></g>
<g><path style="opacity:1" fill="#d8d6f1" d="M 471.5,281.5 C 475.461,284.746 478.461,288.746 480.5,293.5C 478.908,294.602 478.075,293.935 478,291.5C 477,292.5 476,293.5 475,294.5C 475.269,292.277 475.435,290.111 475.5,288C 473.93,285.941 472.597,283.774 471.5,281.5 Z"/></g>
<g><path style="opacity:1" fill="#c2c3ec" d="M 589.5,279.5 C 586.908,285.979 582.908,291.313 577.5,295.5C 581.016,289.8 585.016,284.467 589.5,279.5 Z"/></g>
<g><path style="opacity:1" fill="#a9b0e1" d="M 947.5,291.5 C 949.749,292.08 951.415,293.413 952.5,295.5C 950.251,294.92 948.585,293.587 947.5,291.5 Z"/></g>
<g><path style="opacity:1" fill="#6165b3" d="M 548.5,290.5 C 547.92,292.749 546.587,294.415 544.5,295.5C 545.08,293.251 546.413,291.585 548.5,290.5 Z"/></g>
<g><path style="opacity:1" fill="#626ba9" d="M 705.5,281.5 C 705.5,281.167 705.5,280.833 705.5,280.5C 730.5,280.5 755.5,280.5 780.5,280.5C 780.5,287.5 780.5,294.5 780.5,301.5C 780.167,301.5 779.833,301.5 779.5,301.5C 779.5,294.833 779.5,288.167 779.5,281.5C 754.833,281.5 730.167,281.5 705.5,281.5 Z"/></g>
<g><path style="opacity:1" fill="#222590" d="M 705.5,281.5 C 730.167,281.5 754.833,281.5 779.5,281.5C 779.5,288.167 779.5,294.833 779.5,301.5C 754.5,302.167 729.5,302.833 704.5,303.5C 703.596,302.791 703.263,301.791 703.5,300.5C 725.792,301.132 747.959,300.465 770,298.5C 772.524,299.104 775.024,299.771 777.5,300.5C 778.807,294.612 778.807,288.779 777.5,283C 757.169,282.5 736.836,282.333 716.5,282.5C 716.5,284.167 716.5,285.833 716.5,287.5C 715.5,287.5 714.5,287.5 713.5,287.5C 713.5,285.833 713.5,284.167 713.5,282.5C 710.615,282.806 707.948,282.473 705.5,281.5 Z"/></g>
<g><path style="opacity:1" fill="#c2cff9" d="M 779.5,301.5 C 779.833,301.5 780.167,301.5 780.5,301.5C 755.856,303.491 730.856,304.157 705.5,303.5C 705.5,308.833 705.5,314.167 705.5,319.5C 705.167,319.5 704.833,319.5 704.5,319.5C 704.5,314.167 704.5,308.833 704.5,303.5C 729.5,302.833 754.5,302.167 779.5,301.5 Z"/></g>
<g><path style="opacity:1" fill="#c5cbec" d="M 570.5,303.5 C 570.199,309.693 567.199,314.026 561.5,316.5C 564.117,311.886 567.117,307.553 570.5,303.5 Z"/></g>
<g><path style="opacity:1" fill="#191b8b" d="M 489.5,303.5 C 490.675,303.281 491.675,303.614 492.5,304.5C 493.823,307.156 495.823,309.156 498.5,310.5C 501.195,312.905 502.528,315.905 502.5,319.5C 500.583,318.091 498.75,316.424 497,314.5C 494.611,310.637 492.111,306.971 489.5,303.5 Z"/></g>
<g><path style="opacity:1" fill="#23298e" d="M 281.5,319.5 C 281.833,319.5 282.167,319.5 282.5,319.5C 307.167,319.5 331.833,319.5 356.5,319.5C 355.048,320.302 353.382,320.802 351.5,321C 330.167,321.667 308.833,321.667 287.5,321C 285.292,320.809 283.292,320.309 281.5,319.5 Z"/></g>
<g><path style="opacity:1" fill="#20258d" d="M 704.5,319.5 C 704.833,319.5 705.167,319.5 705.5,319.5C 736.167,319.5 766.833,319.5 797.5,319.5C 797.825,326.687 797.491,333.687 796.5,340.5C 796.821,334.974 796.488,329.64 795.5,324.5C 795.53,323.503 795.03,322.836 794,322.5C 791.667,323.833 789.333,323.833 787,322.5C 785.739,322.759 784.739,323.426 784,324.5C 783.517,323.552 783.351,322.552 783.5,321.5C 756.825,321.833 730.158,321.5 703.5,320.5C 703.624,319.893 703.957,319.56 704.5,319.5 Z"/></g>
<g><path style="opacity:1" fill="#9ea5d9" d="M 558.5,319.5 C 558.155,322.198 556.822,324.198 554.5,325.5C 555.34,323.147 556.674,321.147 558.5,319.5 Z"/></g>
<g><path style="opacity:1" fill="#27268c" d="M 383.5,329.5 C 381.833,331.833 379.833,333.833 377.5,335.5C 377.735,331.676 379.735,329.676 383.5,329.5 Z"/></g>
<g><path style="opacity:1" fill="#d9d7f1" d="M 551.5,329.5 C 550.037,332.658 548.871,335.991 548,339.5C 546.275,340.464 544.441,341.131 542.5,341.5C 544.539,336.746 547.539,332.746 551.5,329.5 Z"/></g>
<g><path style="opacity:1" fill="#0b0f90" d="M 795.5,324.5 C 796.488,329.64 796.821,334.974 796.5,340.5C 757.167,340.5 717.833,340.5 678.5,340.5C 678.5,340.167 678.5,339.833 678.5,339.5C 717.167,339.5 755.833,339.5 794.5,339.5C 795.254,334.537 795.587,329.537 795.5,324.5 Z"/></g>
<g><path style="opacity:1" fill="#373b8f" d="M 193.5,338.5 C 194.167,338.5 194.833,338.5 195.5,338.5C 195.5,339.5 195.5,340.5 195.5,341.5C 195.167,341.5 194.833,341.5 194.5,341.5C 185.318,341.827 176.318,341.493 167.5,340.5C 176.017,340.826 184.35,340.493 192.5,339.5C 193.167,339.5 193.5,339.167 193.5,338.5 Z"/></g>
<g><path style="opacity:1" fill="#3f439a" d="M 797.5,319.5 C 798.165,322.984 798.499,326.651 798.5,330.5C 798.489,334.565 797.822,338.232 796.5,341.5C 756.33,341.832 716.33,341.499 676.5,340.5C 677.167,340.5 677.833,340.5 678.5,340.5C 717.833,340.5 757.167,340.5 796.5,340.5C 797.491,333.687 797.825,326.687 797.5,319.5 Z"/></g>
<g><path style="opacity:1" fill="#3a3f93" d="M 889.5,335.5 C 889.833,335.5 890.167,335.5 890.5,335.5C 890.5,337.5 890.5,339.5 890.5,341.5C 881.5,341.5 872.5,341.5 863.5,341.5C 863.5,341.167 863.5,340.833 863.5,340.5C 872.167,340.5 880.833,340.5 889.5,340.5C 889.5,338.833 889.5,337.167 889.5,335.5 Z"/></g>
<g><path style="opacity:1" fill="#343692" d="M 959.5,335.5 C 960.978,335.238 962.311,335.571 963.5,336.5C 963.968,338.134 964.968,339.3 966.5,340C 974.833,340.667 983.167,340.667 991.5,340C 992.416,339.722 993.082,339.222 993.5,338.5C 993.833,338.5 994.167,338.5 994.5,338.5C 994.5,339.5 994.5,340.5 994.5,341.5C 984.494,341.666 974.494,341.5 964.5,341C 962.234,339.574 960.568,337.74 959.5,335.5 Z"/></g>
<g><path style="opacity:1" fill="#a8aedf" d="M 167.5,241.5 C 167.5,241.833 167.5,242.167 167.5,242.5C 167.5,275.167 167.5,307.833 167.5,340.5C 176.318,341.493 185.318,341.827 194.5,341.5C 185.348,342.494 176.015,342.827 166.5,342.5C 166.168,308.663 166.502,274.996 167.5,241.5 Z"/></g>
<g><path style="opacity:1" fill="#c8cbfb" d="M 361.5,340.5 C 363.5,340.5 365.5,340.5 367.5,340.5C 366.048,341.302 364.382,341.802 362.5,342C 325.998,342.831 289.664,342.664 253.5,341.5C 289.671,341.832 325.671,341.498 361.5,340.5 Z"/></g>
<g><path style="opacity:1" fill="#ced2f3" d="M 513.5,335.5 C 515.054,336.914 516.388,338.581 517.5,340.5C 525.807,341.498 534.14,341.831 542.5,341.5C 533.325,342.822 523.992,342.822 514.5,341.5C 513.652,339.591 513.318,337.591 513.5,335.5 Z"/></g>
<g><path style="opacity:1" fill="#b2b6e5" d="M 676.5,241.5 C 676.5,241.833 676.5,242.167 676.5,242.5C 676.5,275.167 676.5,307.833 676.5,340.5C 716.33,341.499 756.33,341.832 796.5,341.5C 756.337,342.499 716.003,342.832 675.5,342.5C 675.168,308.663 675.502,274.996 676.5,241.5 Z"/></g>
</svg>
